0
SECTION
2
HEADER
0
ENDSEC
0
SECTION
2
ENTITIES
0
LINE
8
0
10
-38.932632
20
8.885564
30
0.0
11
-38.540547
21
8.705752
31
0.0
0
LINE
8
0
10
-38.540547
20
8.705752
30
0.0
11
-38.309551
21
8.599816
31
0.0
0
LINE
8
0
10
-38.309551
20
8.599816
30
0.0
11
-37.598866
21
8.445090
31
0.0
0
LINE
8
0
10
-37.598866
20
8.445090
30
0.0
11
-37.180168
21
8.353934
31
0.0
0
LINE
8
0
10
-37.180168
20
8.353934
30
0.0
11
-36.212851
21
8.254930
31
0.0
0
LINE
8
0
10
-36.212851
20
8.254930
30
0.0
11
-35.642959
21
8.196603
31
0.0
0
LINE
8
0
10
-35.642959
20
8.196603
30
0.0
11
-34.480967
21
8.183953
31
0.0
0
LINE
8
0
10
-34.480967
20
8.183953
30
0.0
11
-33.796383
21
8.176500
31
0.0
0
LINE
8
0
10
-33.796383
20
8.176500
30
0.0
11
-32.501693
21
8.280839
31
0.0
0
LINE
8
0
10
-32.501693
20
8.280839
30
0.0
11
-31.738929
21
8.342310
31
0.0
0
LINE
8
0
10
-31.738929
20
8.342310
30
0.0
11
-30.373500
21
8.594270
31
0.0
0
LINE
8
0
10
-30.373500
20
8.594270
30
0.0
11
-29.569061
21
8.742712
31
0.0
0
LINE
8
0
10
-29.569061
20
8.742712
30
0.0
11
-28.194862
21
9.172929
31
0.0
0
LINE
8
0
10
-28.194862
20
9.172929
30
0.0
11
-27.385255
21
9.426390
31
0.0
0
LINE
8
0
10
-27.385255
20
9.426390
30
0.0
11
-26.064249
21
10.065497
31
0.0
0
LINE
8
0
10
-26.064249
20
10.065497
30
0.0
11
-25.285982
21
10.442026
31
0.0
0
LINE
8
0
10
-25.285982
20
10.442026
30
0.0
11
-24.080139
21
11.320657
31
0.0
0
LINE
8
0
10
-24.080139
20
11.320657
30
0.0
11
-23.369720
21
11.838300
31
0.0
0
LINE
8
0
10
-23.369720
20
11.838300
30
0.0
11
-22.341000
21
12.987089
31
0.0
0
LINE
8
0
10
-22.341000
20
12.987089
30
0.0
11
-21.734932
21
13.663895
31
0.0
0
LINE
8
0
10
-21.734932
20
13.663895
30
0.0
11
-20.945306
21
15.113476
31
0.0
0
LINE
8
0
10
-20.945306
20
15.113476
30
0.0
11
-20.480100
21
15.967494
31
0.0
0
LINE
8
0
10
-20.480100
20
15.967494
30
0.0
11
-19.991538
21
17.748498
31
0.0
0
LINE
8
0
10
-19.991538
20
17.748498
30
0.0
11
-19.703703
21
18.797773
31
0.0
0
LINE
8
0
10
-19.703703
20
18.797773
30
0.0
11
-18.558676
21
17.795417
31
0.0
0
LINE
8
0
10
-18.558676
20
17.795417
30
0.0
11
-17.884086
21
17.204881
31
0.0
0
LINE
8
0
10
-17.884086
20
17.204881
30
0.0
11
-16.710686
21
16.406818
31
0.0
0
LINE
8
0
10
-16.710686
20
16.406818
30
0.0
11
-16.019380
21
15.936641
31
0.0
0
LINE
8
0
10
-16.019380
20
15.936641
30
0.0
11
-14.832886
21
15.351604
31
0.0
0
LINE
8
0
10
-14.832886
20
15.351604
30
0.0
11
-14.133865
21
15.006930
31
0.0
0
LINE
8
0
10
-14.133865
20
15.006930
30
0.0
11
-12.949552
21
14.643645
31
0.0
0
LINE
8
0
10
-12.949552
20
14.643645
30
0.0
11
-12.251816
21
14.429617
31
0.0
0
LINE
8
0
10
-12.251816
20
14.429617
30
0.0
11
-11.084964
21
14.296816
31
0.0
0
LINE
8
0
10
-11.084964
20
14.296816
30
0.0
11
-10.397516
21
14.218577
31
0.0
0
LINE
8
0
10
-10.397516
20
14.218577
30
0.0
11
-9.263403
21
14.324992
31
0.0
0
LINE
8
0
10
-9.263403
20
14.324992
30
0.0
11
-8.595243
21
14.387686
31
0.0
0
LINE
8
0
10
-8.595243
20
14.387686
30
0.0
11
-7.509149
21
14.742047
31
0.0
0
LINE
8
0
10
-7.509149
20
14.742047
30
0.0
11
-6.869279
21
14.950818
31
0.0
0
LINE
8
0
10
-6.869279
20
14.950818
30
0.0
11
-5.846478
21
15.561856
31
0.0
0
LINE
8
0
10
-5.846478
20
15.561856
30
0.0
11
-5.243898
21
15.921847
31
0.0
0
LINE
8
0
10
-5.243898
20
15.921847
30
0.0
11
-4.299674
21
16.798288
31
0.0
0
LINE
8
0
10
-4.299674
20
16.798288
30
0.0
11
-3.743386
21
17.314642
31
0.0
0
LINE
8
0
10
-3.743386
20
17.314642
30
0.0
11
-2.893014
21
18.465222
31
0.0
0
LINE
8
0
10
-2.893014
20
18.465222
30
0.0
11
-2.392019
21
19.143083
31
0.0
0
LINE
8
0
10
-2.392019
20
19.143083
30
0.0
11
-1.650778
21
20.576533
31
0.0
0
LINE
8
0
10
-1.650778
20
20.576533
30
0.0
11
-1.214077
21
21.421047
31
0.0
0
LINE
8
0
10
-1.214077
20
21.421047
30
0.0
11
-0.597241
21
23.146087
31
0.0
0
LINE
8
0
10
-0.597241
20
23.146087
30
0.0
11
-0.233834
21
24.162390
31
0.0
0
LINE
8
0
10
-3.020138
20
-15.434010
30
0.0
11
-1.266807
21
-15.399108
31
0.0
0
LINE
8
0
10
-1.266807
20
-15.399108
30
0.0
11
-0.233837
21
-15.378546
31
0.0
0
LINE
8
0
10
-5.495890
20
-15.469124
30
0.0
11
-3.937978
21
-15.447028
31
0.0
0
LINE
8
0
10
-3.937978
20
-15.447028
30
0.0
11
-3.020138
21
-15.434010
31
0.0
0
LINE
8
0
10
-5.495890
20
-15.469124
30
0.0
11
-6.909959
21
-15.489700
31
0.0
0
LINE
8
0
10
-6.909959
20
-15.489700
30
0.0
11
-7.743055
21
-15.501823
31
0.0
0
LINE
8
0
10
-7.743055
20
-15.501823
30
0.0
11
-9.064851
21
-15.532166
31
0.0
0
LINE
8
0
10
-9.064851
20
-15.532166
30
0.0
11
-9.843584
21
-15.550042
31
0.0
0
LINE
8
0
10
-9.843584
20
-15.550042
30
0.0
11
-11.124682
21
-15.601437
31
0.0
0
LINE
8
0
10
-11.124682
20
-15.601437
30
0.0
11
-11.879438
21
-15.631716
31
0.0
0
LINE
8
0
10
-11.879438
20
-15.631716
30
0.0
11
-13.171408
21
-15.715448
31
0.0
0
LINE
8
0
10
-13.171408
20
-15.715448
30
0.0
11
-13.932569
21
-15.764778
31
0.0
0
LINE
8
0
10
-13.932569
20
-15.764778
30
0.0
11
-15.286984
21
-15.892133
31
0.0
0
LINE
8
0
10
-15.286984
20
-15.892133
30
0.0
11
-16.084934
21
-15.967163
31
0.0
0
LINE
8
0
10
-16.084934
20
-15.967163
30
0.0
11
-17.553366
21
-16.149426
31
0.0
0
LINE
8
0
10
-17.553366
20
-16.149426
30
0.0
11
-18.418489
21
-16.256806
31
0.0
0
LINE
8
0
10
-18.418489
20
-16.256806
30
0.0
11
-20.052511
21
-16.505262
31
0.0
0
LINE
8
0
10
-20.052511
20
-16.505262
30
0.0
11
-21.015192
21
-16.651640
31
0.0
0
LINE
8
0
10
-21.015192
20
-16.651640
30
0.0
11
-22.866375
21
-16.977577
31
0.0
0
LINE
8
0
10
-22.866375
20
-16.977577
30
0.0
11
-23.956995
21
-17.169602
31
0.0
0
LINE
8
0
10
-23.956995
20
-17.169602
30
0.0
11
-26.076910
21
-17.584305
31
0.0
0
LINE
8
0
10
-26.076910
20
-17.584305
30
0.0
11
-27.325853
21
-17.828627
31
0.0
0
LINE
8
0
10
-27.325853
20
-17.828627
30
0.0
11
-29.766071
21
-18.343380
31
0.0
0
LINE
8
0
10
-29.766071
20
-18.343380
30
0.0
11
-31.203720
21
-18.646645
31
0.0
0
LINE
8
0
10
-31.203720
20
-18.646645
30
0.0
11
-31.858971
21
-18.731094
31
0.0
0
LINE
8
0
10
-31.858971
20
-18.731094
30
0.0
11
-32.245010
21
-18.780848
31
0.0
0
LINE
8
0
10
-32.245010
20
-18.780848
30
0.0
11
-32.816316
21
-18.744500
31
0.0
0
LINE
8
0
10
-32.816316
20
-18.744500
30
0.0
11
-33.152900
21
-18.723086
31
0.0
0
LINE
8
0
10
-33.152900
20
-18.723086
30
0.0
11
-33.635783
21
-18.584726
31
0.0
0
LINE
8
0
10
-33.635783
20
-18.584726
30
0.0
11
-33.920272
21
-18.503212
31
0.0
0
LINE
8
0
10
-33.920272
20
-18.503212
30
0.0
11
-34.310257
21
-18.281635
31
0.0
0
LINE
8
0
10
-34.310257
20
-18.281635
30
0.0
11
-34.540016
21
-18.151093
31
0.0
0
LINE
8
0
10
-34.540016
20
-18.151093
30
0.0
11
-34.832616
21
-17.865089
31
0.0
0
LINE
8
0
10
-34.832616
20
-17.865089
30
0.0
11
-35.005001
21
-17.696591
31
0.0
0
LINE
8
0
10
-35.005001
20
-17.696591
30
0.0
11
-35.195747
21
-17.364952
31
0.0
0
LINE
8
0
10
-35.195747
20
-17.364952
30
0.0
11
-35.308124
21
-17.169567
31
0.0
0
LINE
8
0
10
-35.308124
20
-17.169567
30
0.0
11
-35.392537
21
-16.811079
31
0.0
0
LINE
8
0
10
-35.392537
20
-16.811079
30
0.0
11
-35.442268
21
-16.599877
31
0.0
0
LINE
8
0
10
-35.442268
20
-16.599877
30
0.0
11
-35.415865
21
-16.233336
31
0.0
0
LINE
8
0
10
-35.415865
20
-16.233336
30
0.0
11
-35.400310
21
-16.017390
31
0.0
0
LINE
8
0
10
-35.400310
20
-16.017390
30
0.0
11
-35.258613
21
-15.661583
31
0.0
0
LINE
8
0
10
-35.258613
20
-15.661583
30
0.0
11
-35.175132
21
-15.451960
31
0.0
0
LINE
8
0
10
-35.175132
20
-15.451960
30
0.0
11
-34.913666
21
-15.125677
31
0.0
0
LINE
8
0
10
-34.913666
20
-15.125677
30
0.0
11
-34.759624
21
-14.933449
31
0.0
0
LINE
8
0
10
-34.759624
20
-14.933449
30
0.0
11
-34.373910
21
-14.655485
31
0.0
0
LINE
8
0
10
-34.373910
20
-14.655485
30
0.0
11
-34.146667
21
-14.491723
31
0.0
0
LINE
8
0
10
-34.146667
20
-14.491723
30
0.0
11
-33.632225
21
-14.280869
31
0.0
0
LINE
8
0
10
-33.632225
20
-14.280869
30
0.0
11
-33.329143
21
-14.156644
31
0.0
0
LINE
8
0
10
-33.329143
20
-14.156644
30
0.0
11
-33.058483
21
-14.074528
31
0.0
0
LINE
8
0
10
-33.058483
20
-14.074528
30
0.0
11
-32.899025
21
-14.026149
31
0.0
0
LINE
8
0
10
-32.899025
20
-14.026149
30
0.0
11
-32.681261
21
-13.953917
31
0.0
0
LINE
8
0
10
-32.681261
20
-13.953917
30
0.0
11
-32.552967
21
-13.911362
31
0.0
0
LINE
8
0
10
-32.552967
20
-13.911362
30
0.0
11
-32.382949
21
-13.845955
31
0.0
0
LINE
8
0
10
-32.382949
20
-13.845955
30
0.0
11
-32.282783
21
-13.807421
31
0.0
0
LINE
8
0
10
-32.282783
20
-13.807421
30
0.0
11
-32.155347
21
-13.745778
31
0.0
0
LINE
8
0
10
-32.155347
20
-13.745778
30
0.0
11
-32.080269
21
-13.709460
31
0.0
0
LINE
8
0
10
-32.080269
20
-13.709460
30
0.0
11
-31.990258
21
-13.648520
31
0.0
0
LINE
8
0
10
-31.990258
20
-13.648520
30
0.0
11
-31.937229
21
-13.612618
31
0.0
0
LINE
8
0
10
-31.937229
20
-13.612618
30
0.0
11
-31.879490
21
-13.549321
31
0.0
0
LINE
8
0
10
-31.879490
20
-13.549321
30
0.0
11
-31.845474
21
-13.512030
31
0.0
0
LINE
8
0
10
-31.845474
20
-13.512030
30
0.0
11
-31.814846
21
-13.443315
31
0.0
0
LINE
8
0
10
-31.814846
20
-13.443315
30
0.0
11
-31.796802
21
-13.402832
31
0.0
0
LINE
8
0
10
-31.796802
20
-13.402832
30
0.0
11
-31.788129
21
-13.325640
31
0.0
0
LINE
8
0
10
-31.788129
20
-13.325640
30
0.0
11
-31.783020
21
-13.280162
31
0.0
0
LINE
8
0
10
-31.783020
20
-13.280162
30
0.0
11
-31.791140
21
-13.191431
31
0.0
0
LINE
8
0
10
-31.791140
20
-13.191431
30
0.0
11
-31.795925
21
-13.139156
31
0.0
0
LINE
8
0
10
-31.795925
20
-13.139156
30
0.0
11
-31.815688
21
-13.035829
31
0.0
0
LINE
8
0
10
-31.815688
20
-13.035829
30
0.0
11
-31.827331
21
-12.974955
31
0.0
0
LINE
8
0
10
-31.827331
20
-12.974955
30
0.0
11
-31.853573
21
-12.853966
31
0.0
0
LINE
8
0
10
-31.853573
20
-12.853966
30
0.0
11
-31.869033
21
-12.782686
31
0.0
0
LINE
8
0
10
-31.869033
20
-12.782686
30
0.0
11
-31.896600
21
-12.640979
31
0.0
0
LINE
8
0
10
-31.896600
20
-12.640979
30
0.0
11
-31.912841
21
-12.557492
31
0.0
0
LINE
8
0
10
-31.912841
20
-12.557492
30
0.0
11
-32.273281
21
-11.455408
31
0.0
0
LINE
8
0
10
-32.273281
20
-11.455408
30
0.0
11
-32.485634
21
-10.806118
31
0.0
0
LINE
8
0
10
-32.485634
20
-10.806118
30
0.0
11
-32.833524
21
-9.740633
31
0.0
0
LINE
8
0
10
-32.833524
20
-9.740633
30
0.0
11
-33.038482
21
-9.112905
31
0.0
0
LINE
8
0
10
-33.038482
20
-9.112905
30
0.0
11
-33.378007
21
-8.071824
31
0.0
0
LINE
8
0
10
-33.378007
20
-8.071824
30
0.0
11
-33.578037
21
-7.458473
31
0.0
0
LINE
8
0
10
-33.578037
20
-7.458473
30
0.0
11
-33.913375
21
-6.429591
31
0.0
0
LINE
8
0
10
-33.913375
20
-6.429591
30
0.0
11
-34.110939
21
-5.823427
31
0.0
0
LINE
8
0
10
-34.110939
20
-5.823427
30
0.0
11
-34.446279
21
-4.794547
31
0.0
0
LINE
8
0
10
-34.446279
20
-4.794547
30
0.0
11
-34.643844
21
-4.188384
31
0.0
0
LINE
8
0
10
-34.643844
20
-4.188384
30
0.0
11
-34.983364
21
-3.147300
31
0.0
0
LINE
8
0
10
-34.983364
20
-3.147300
30
0.0
11
-35.183391
21
-2.533949
31
0.0
0
LINE
8
0
10
-35.183391
20
-2.533949
30
0.0
11
-35.531281
21
-1.468465
31
0.0
0
LINE
8
0
10
-35.531281
20
-1.468465
30
0.0
11
-35.736240
21
-0.840738
31
0.0
0
LINE
8
0
10
-35.736240
20
-0.840738
30
0.0
11
-35.838179
21
-0.529049
31
0.0
0
LINE
8
0
10
-36.309036
20
0.910638
30
0.0
11
-35.948594
21
-0.191447
31
0.0
0
LINE
8
0
10
-35.948594
20
-0.191447
30
0.0
11
-35.838179
21
-0.529049
31
0.0
0
LINE
8
0
10
-36.309036
20
0.910638
30
0.0
11
-36.686209
21
2.061525
31
0.0
0
LINE
8
0
10
-36.686209
20
2.061525
30
0.0
11
-36.908420
21
2.739568
31
0.0
0
LINE
8
0
10
-36.908420
20
2.739568
30
0.0
11
-37.306516
21
3.951458
31
0.0
0
LINE
8
0
10
-37.306516
20
3.951458
30
0.0
11
-37.541053
21
4.665440
31
0.0
0
LINE
8
0
10
-37.541053
20
4.665440
30
0.0
11
-37.964249
21
5.950533
31
0.0
0
LINE
8
0
10
-37.964249
20
5.950533
30
0.0
11
-38.213573
21
6.707643
31
0.0
0
LINE
8
0
10
-38.213573
20
6.707643
30
0.0
11
-38.666054
21
8.078139
31
0.0
0
LINE
8
0
10
-38.666054
20
8.078139
30
0.0
11
-38.932632
21
8.885564
31
0.0
0
LINE
8
0
10
37.841881
20
8.599810
30
0.0
11
38.233966
21
8.779622
31
0.0
0
LINE
8
0
10
38.233966
20
8.779622
30
0.0
11
38.464962
21
8.885558
31
0.0
0
LINE
8
0
10
36.712498
20
8.353928
30
0.0
11
37.423183
21
8.508654
31
0.0
0
LINE
8
0
10
37.423183
20
8.508654
30
0.0
11
37.841881
21
8.599810
31
0.0
0
LINE
8
0
10
35.175286
20
8.196597
30
0.0
11
36.142604
21
8.295601
31
0.0
0
LINE
8
0
10
36.142604
20
8.295601
30
0.0
11
36.712498
21
8.353928
31
0.0
0
LINE
8
0
10
33.328711
20
8.176494
30
0.0
11
34.490702
21
8.189144
31
0.0
0
LINE
8
0
10
34.490702
20
8.189144
30
0.0
11
35.175286
21
8.196597
31
0.0
0
LINE
8
0
10
31.271258
20
8.342305
30
0.0
11
32.565947
21
8.237966
31
0.0
0
LINE
8
0
10
32.565947
20
8.237966
30
0.0
11
33.328711
21
8.176494
31
0.0
0
LINE
8
0
10
29.101389
20
8.742708
30
0.0
11
30.466818
21
8.490747
31
0.0
0
LINE
8
0
10
30.466818
20
8.490747
30
0.0
11
31.271258
21
8.342305
31
0.0
0
LINE
8
0
10
26.917586
20
9.426387
30
0.0
11
28.291784
21
8.996169
31
0.0
0
LINE
8
0
10
28.291784
20
8.996169
30
0.0
11
29.101389
21
8.742708
31
0.0
0
LINE
8
0
10
24.818312
20
10.442022
30
0.0
11
26.139318
21
9.802915
31
0.0
0
LINE
8
0
10
26.139318
20
9.802915
30
0.0
11
26.917586
21
9.426387
31
0.0
0
LINE
8
0
10
22.902048
20
11.838297
30
0.0
11
24.107892
21
10.959666
31
0.0
0
LINE
8
0
10
24.107892
20
10.959666
30
0.0
11
24.818312
21
10.442022
31
0.0
0
LINE
8
0
10
21.267264
20
13.663892
30
0.0
11
22.295982
21
12.515103
31
0.0
0
LINE
8
0
10
22.295982
20
12.515103
30
0.0
11
22.902048
21
11.838297
31
0.0
0
LINE
8
0
10
20.012434
20
15.967491
30
0.0
11
20.802059
21
14.517909
31
0.0
0
LINE
8
0
10
20.802059
20
14.517909
30
0.0
11
21.267264
21
13.663892
31
0.0
0
LINE
8
0
10
19.236035
20
18.797769
30
0.0
11
19.724598
21
17.016765
31
0.0
0
LINE
8
0
10
19.724598
20
17.016765
30
0.0
11
20.012434
21
15.967491
31
0.0
0
LINE
8
0
10
17.416417
20
17.204878
30
0.0
11
18.561445
21
18.207234
31
0.0
0
LINE
8
0
10
18.561445
20
18.207234
30
0.0
11
19.236035
21
18.797769
31
0.0
0
LINE
8
0
10
15.551712
20
15.936640
30
0.0
11
16.725112
21
16.734701
31
0.0
0
LINE
8
0
10
16.725112
20
16.734701
30
0.0
11
17.416417
21
17.204878
31
0.0
0
LINE
8
0
10
13.666194
20
15.006928
30
0.0
11
14.852691
21
15.591966
31
0.0
0
LINE
8
0
10
14.852691
20
15.591966
30
0.0
11
15.551712
21
15.936640
31
0.0
0
LINE
8
0
10
11.784148
20
14.429615
30
0.0
11
12.968460
21
14.792900
31
0.0
0
LINE
8
0
10
12.968460
20
14.792900
30
0.0
11
13.666194
21
15.006928
31
0.0
0
LINE
8
0
10
9.929847
20
14.218575
30
0.0
11
11.096699
21
14.351376
31
0.0
0
LINE
8
0
10
11.096699
20
14.351376
30
0.0
11
11.784148
21
14.429615
31
0.0
0
LINE
8
0
10
8.127574
20
14.387685
30
0.0
11
9.261687
21
14.281269
31
0.0
0
LINE
8
0
10
9.261687
20
14.281269
30
0.0
11
9.929847
21
14.218575
31
0.0
0
LINE
8
0
10
6.401609
20
14.950817
30
0.0
11
7.487704
21
14.596456
31
0.0
0
LINE
8
0
10
7.487704
20
14.596456
30
0.0
11
8.127574
21
14.387685
31
0.0
0
LINE
8
0
10
4.776230
20
15.921846
30
0.0
11
5.799029
21
15.310808
31
0.0
0
LINE
8
0
10
5.799029
20
15.310808
30
0.0
11
6.401609
21
14.950817
31
0.0
0
LINE
8
0
10
3.275717
20
17.314642
30
0.0
11
4.219942
21
16.438200
31
0.0
0
LINE
8
0
10
4.219942
20
16.438200
30
0.0
11
4.776230
21
15.921846
31
0.0
0
LINE
8
0
10
1.924351
20
19.143083
30
0.0
11
2.774723
21
17.992503
31
0.0
0
LINE
8
0
10
2.774723
20
17.992503
30
0.0
11
3.275717
21
17.314642
31
0.0
0
LINE
8
0
10
0.746409
20
21.421047
30
0.0
11
1.487650
21
19.987597
31
0.0
0
LINE
8
0
10
1.487650
20
19.987597
30
0.0
11
1.924351
21
19.143083
31
0.0
0
LINE
8
0
10
-0.233834
20
24.162390
30
0.0
11
0.383002
21
22.437350
31
0.0
0
LINE
8
0
10
0.383002
20
22.437350
30
0.0
11
0.746409
21
21.421047
31
0.0
0
LINE
8
0
10
2.552464
20
-15.434010
30
0.0
11
0.799134
21
-15.399108
31
0.0
0
LINE
8
0
10
0.799134
20
-15.399108
30
0.0
11
-0.233837
21
-15.378546
31
0.0
0
LINE
8
0
10
5.028217
20
-15.469125
30
0.0
11
3.470305
21
-15.447028
31
0.0
0
LINE
8
0
10
3.470305
20
-15.447028
30
0.0
11
2.552464
21
-15.434010
31
0.0
0
LINE
8
0
10
7.275381
20
-15.501824
30
0.0
11
5.861313
21
-15.481247
31
0.0
0
LINE
8
0
10
5.861313
20
-15.481247
30
0.0
11
5.028217
21
-15.469125
31
0.0
0
LINE
8
0
10
9.375912
20
-15.550044
30
0.0
11
8.054115
21
-15.519701
31
0.0
0
LINE
8
0
10
8.054115
20
-15.519701
30
0.0
11
7.275381
21
-15.501824
31
0.0
0
LINE
8
0
10
11.411765
20
-15.631718
30
0.0
11
10.130667
21
-15.580323
31
0.0
0
LINE
8
0
10
10.130667
20
-15.580323
30
0.0
11
9.375912
21
-15.550044
31
0.0
0
LINE
8
0
10
13.464896
20
-15.764780
30
0.0
11
12.172926
21
-15.681048
31
0.0
0
LINE
8
0
10
12.172926
20
-15.681048
30
0.0
11
11.411765
21
-15.631718
31
0.0
0
LINE
8
0
10
15.617260
20
-15.967165
30
0.0
11
14.262846
21
-15.839811
31
0.0
0
LINE
8
0
10
14.262846
20
-15.839811
30
0.0
11
13.464896
21
-15.764780
31
0.0
0
LINE
8
0
10
17.950816
20
-16.256809
30
0.0
11
16.482384
21
-16.074546
31
0.0
0
LINE
8
0
10
16.482384
20
-16.074546
30
0.0
11
15.617260
21
-15.967165
31
0.0
0
LINE
8
0
10
20.547518
20
-16.651644
30
0.0
11
18.913496
21
-16.403187
31
0.0
0
LINE
8
0
10
18.913496
20
-16.403187
30
0.0
11
17.950816
21
-16.256809
31
0.0
0
LINE
8
0
10
23.489319
20
-17.169605
30
0.0
11
21.638137
21
-16.843669
31
0.0
0
LINE
8
0
10
21.638137
20
-16.843669
30
0.0
11
20.547518
21
-16.651644
31
0.0
0
LINE
8
0
10
26.858178
20
-17.828631
30
0.0
11
24.738262
21
-17.413927
31
0.0
0
LINE
8
0
10
24.738262
20
-17.413927
30
0.0
11
23.489319
21
-17.169605
31
0.0
0
LINE
8
0
10
30.736046
20
-18.646649
30
0.0
11
28.295827
21
-18.131896
31
0.0
0
LINE
8
0
10
28.295827
20
-18.131896
30
0.0
11
26.858178
21
-17.828631
31
0.0
0
LINE
8
0
10
31.777336
20
-18.780852
30
0.0
11
31.122086
21
-18.696402
31
0.0
0
LINE
8
0
10
31.122086
20
-18.696402
30
0.0
11
30.736046
21
-18.646649
31
0.0
0
LINE
8
0
10
32.685227
20
-18.723089
30
0.0
11
32.113920
21
-18.759437
31
0.0
0
LINE
8
0
10
32.113920
20
-18.759437
30
0.0
11
31.777336
21
-18.780852
31
0.0
0
LINE
8
0
10
33.452597
20
-18.503216
30
0.0
11
32.969715
21
-18.641575
31
0.0
0
LINE
8
0
10
32.969715
20
-18.641575
30
0.0
11
32.685227
21
-18.723089
31
0.0
0
LINE
8
0
10
34.072346
20
-18.151097
30
0.0
11
33.682358
21
-18.372674
31
0.0
0
LINE
8
0
10
33.682358
20
-18.372674
30
0.0
11
33.452597
21
-18.503216
31
0.0
0
LINE
8
0
10
34.537331
20
-17.696594
30
0.0
11
34.244731
21
-17.982598
31
0.0
0
LINE
8
0
10
34.244731
20
-17.982598
30
0.0
11
34.072346
21
-18.151097
31
0.0
0
LINE
8
0
10
34.840454
20
-17.169571
30
0.0
11
34.649709
21
-17.501210
31
0.0
0
LINE
8
0
10
34.649709
20
-17.501210
30
0.0
11
34.537331
21
-17.696594
31
0.0
0
LINE
8
0
10
34.974598
20
-16.599880
30
0.0
11
34.890186
21
-16.958369
31
0.0
0
LINE
8
0
10
34.890186
20
-16.958369
30
0.0
11
34.840454
21
-17.169571
31
0.0
0
LINE
8
0
10
34.932640
20
-16.017393
30
0.0
11
34.959043
21
-16.383934
31
0.0
0
LINE
8
0
10
34.959043
20
-16.383934
30
0.0
11
34.974598
21
-16.599880
31
0.0
0
LINE
8
0
10
34.707463
20
-15.451966
30
0.0
11
34.849160
21
-15.807771
31
0.0
0
LINE
8
0
10
34.849160
20
-15.807771
30
0.0
11
34.932640
21
-16.017393
31
0.0
0
LINE
8
0
10
34.291954
20
-14.933455
30
0.0
11
34.553421
21
-15.259737
31
0.0
0
LINE
8
0
10
34.553421
20
-15.259737
30
0.0
11
34.707463
21
-15.451966
31
0.0
0
LINE
8
0
10
33.678994
20
-14.491729
30
0.0
11
34.064710
21
-14.769693
31
0.0
0
LINE
8
0
10
34.064710
20
-14.769693
30
0.0
11
34.291954
21
-14.933455
31
0.0
0
LINE
8
0
10
32.861468
20
-14.156649
30
0.0
11
33.375911
21
-14.367504
31
0.0
0
LINE
8
0
10
33.375911
20
-14.367504
30
0.0
11
33.678994
21
-14.491729
31
0.0
0
LINE
8
0
10
32.431351
20
-14.026154
30
0.0
11
32.702010
21
-14.108270
31
0.0
0
LINE
8
0
10
32.702010
20
-14.108270
30
0.0
11
32.861468
21
-14.156649
31
0.0
0
LINE
8
0
10
32.085295
20
-13.911367
30
0.0
11
32.303057
21
-13.983599
31
0.0
0
LINE
8
0
10
32.303057
20
-13.983599
30
0.0
11
32.431351
21
-14.026154
31
0.0
0
LINE
8
0
10
31.815112
20
-13.807426
30
0.0
11
31.985129
21
-13.872832
31
0.0
0
LINE
8
0
10
31.985129
20
-13.872832
30
0.0
11
32.085295
21
-13.911367
31
0.0
0
LINE
8
0
10
31.612597
20
-13.709465
30
0.0
11
31.740033
21
-13.771109
31
0.0
0
LINE
8
0
10
31.740033
20
-13.771109
30
0.0
11
31.815112
21
-13.807426
31
0.0
0
LINE
8
0
10
31.469557
20
-13.612622
30
0.0
11
31.559567
21
-13.673563
31
0.0
0
LINE
8
0
10
31.559567
20
-13.673563
30
0.0
11
31.612597
21
-13.709465
31
0.0
0
LINE
8
0
10
31.377802
20
-13.512035
30
0.0
11
31.435541
21
-13.575331
31
0.0
0
LINE
8
0
10
31.435541
20
-13.575331
30
0.0
11
31.469557
21
-13.612622
31
0.0
0
LINE
8
0
10
31.329129
20
-13.402837
30
0.0
11
31.359757
21
-13.471552
31
0.0
0
LINE
8
0
10
31.359757
20
-13.471552
30
0.0
11
31.377802
21
-13.512035
31
0.0
0
LINE
8
0
10
31.315348
20
-13.280167
30
0.0
11
31.324020
21
-13.357359
31
0.0
0
LINE
8
0
10
31.324020
20
-13.357359
30
0.0
11
31.329129
21
-13.402837
31
0.0
0
LINE
8
0
10
31.328253
20
-13.139160
30
0.0
11
31.320132
21
-13.227891
31
0.0
0
LINE
8
0
10
31.320132
20
-13.227891
30
0.0
11
31.315348
21
-13.280167
31
0.0
0
LINE
8
0
10
31.359658
20
-12.974960
30
0.0
11
31.339896
21
-13.078286
31
0.0
0
LINE
8
0
10
31.339896
20
-13.078286
30
0.0
11
31.328253
21
-13.139160
31
0.0
0
LINE
8
0
10
31.401362
20
-12.782691
30
0.0
11
31.375119
21
-12.903680
31
0.0
0
LINE
8
0
10
31.375119
20
-12.903680
30
0.0
11
31.359658
21
-12.974960
31
0.0
0
LINE
8
0
10
31.445170
20
-12.557497
30
0.0
11
31.417603
21
-12.699205
31
0.0
0
LINE
8
0
10
31.417603
20
-12.699205
30
0.0
11
31.401362
21
-12.782691
31
0.0
0
LINE
8
0
10
32.017962
20
-10.806123
30
0.0
11
31.657522
21
-11.908207
31
0.0
0
LINE
8
0
10
31.657522
20
-11.908207
30
0.0
11
31.445170
21
-12.557497
31
0.0
0
LINE
8
0
10
32.570811
20
-9.112910
30
0.0
11
32.222921
21
-10.178395
31
0.0
0
LINE
8
0
10
32.222921
20
-10.178395
30
0.0
11
32.017962
21
-10.806123
31
0.0
0
LINE
8
0
10
33.110365
20
-7.458479
30
0.0
11
32.770841
21
-8.499559
31
0.0
0
LINE
8
0
10
32.770841
20
-8.499559
30
0.0
11
32.570811
21
-9.112910
31
0.0
0
LINE
8
0
10
33.643269
20
-5.823433
30
0.0
11
33.307930
21
-6.852315
31
0.0
0
LINE
8
0
10
33.307930
20
-6.852315
30
0.0
11
33.110365
21
-7.458479
31
0.0
0
LINE
8
0
10
34.176171
20
-4.188389
30
0.0
11
33.840833
21
-5.217270
31
0.0
0
LINE
8
0
10
33.840833
20
-5.217270
30
0.0
11
33.643269
21
-5.823433
31
0.0
0
LINE
8
0
10
34.715721
20
-2.533954
30
0.0
11
34.376199
21
-3.575037
31
0.0
0
LINE
8
0
10
34.376199
20
-3.575037
30
0.0
11
34.176171
21
-4.188389
31
0.0
0
LINE
8
0
10
35.268570
20
-0.840744
30
0.0
11
34.920680
21
-1.906227
31
0.0
0
LINE
8
0
10
34.920680
20
-1.906227
30
0.0
11
34.715721
21
-2.533954
31
0.0
0
LINE
8
0
10
35.841366
20
0.910633
30
0.0
11
35.480924
21
-0.191453
31
0.0
0
LINE
8
0
10
35.480924
20
-0.191453
30
0.0
11
35.268570
21
-0.840744
31
0.0
0
LINE
8
0
10
36.440750
20
2.739562
30
0.0
11
36.063577
21
1.588675
31
0.0
0
LINE
8
0
10
36.063577
20
1.588675
30
0.0
11
35.841366
21
0.910633
31
0.0
0
LINE
8
0
10
37.073384
20
4.665434
30
0.0
11
36.675288
21
3.453544
31
0.0
0
LINE
8
0
10
36.675288
20
3.453544
30
0.0
11
36.440750
21
2.739562
31
0.0
0
LINE
8
0
10
37.745903
20
6.707637
30
0.0
11
37.322708
21
5.422544
31
0.0
0
LINE
8
0
10
37.322708
20
5.422544
30
0.0
11
37.073384
21
4.665434
31
0.0
0
LINE
8
0
10
38.464962
20
8.885558
30
0.0
11
38.012481
21
7.515062
31
0.0
0
LINE
8
0
10
38.012481
20
7.515062
30
0.0
11
37.745903
21
6.707637
31
0.0
0
LINE
8
0
10
-24.712831
20
2.667456
30
0.0
11
-23.922546
21
2.710598
31
0.0
0
LINE
8
0
10
-23.922546
20
2.710598
30
0.0
11
-23.456951
21
2.736015
31
0.0
0
LINE
8
0
10
-26.736277
20
-11.165256
30
0.0
11
-26.074605
21
-11.264786
31
0.0
0
LINE
8
0
10
-26.074605
20
-11.264786
30
0.0
11
-25.684784
21
-11.323425
31
0.0
0
LINE
8
0
10
-24.712831
20
2.667456
30
0.0
11
-25.243458
21
2.579738
31
0.0
0
LINE
8
0
10
-25.243458
20
2.579738
30
0.0
11
-25.556076
21
2.528060
31
0.0
0
LINE
8
0
10
-25.556076
20
2.528060
30
0.0
11
-26.156517
21
2.381637
31
0.0
0
LINE
8
0
10
-26.156517
20
2.381637
30
0.0
11
-26.510265
21
2.295372
31
0.0
0
LINE
8
0
10
-26.510265
20
2.295372
30
0.0
11
-27.088890
21
2.088588
31
0.0
0
LINE
8
0
10
-27.088890
20
2.088588
30
0.0
11
-27.429787
21
1.966761
31
0.0
0
LINE
8
0
10
-28.266767
20
1.545618
30
0.0
11
-27.740082
21
1.810630
31
0.0
0
LINE
8
0
10
-27.740082
20
1.810630
30
0.0
11
-27.429787
21
1.966761
31
0.0
0
LINE
8
0
10
-29.017894
20
1.035404
30
0.0
11
-28.545233
21
1.356465
31
0.0
0
LINE
8
0
10
-28.545233
20
1.356465
30
0.0
11
-28.266767
21
1.545618
31
0.0
0
LINE
8
0
10
-29.679840
20
0.439547
30
0.0
11
-29.263297
21
0.814501
31
0.0
0
LINE
8
0
10
-29.263297
20
0.814501
30
0.0
11
-29.017894
21
1.035404
31
0.0
0
LINE
8
0
10
-23.751083
20
0.713967
30
0.0
11
-23.496617
21
0.724367
31
0.0
0
LINE
8
0
10
-23.496617
20
0.724367
30
0.0
11
-23.346698
21
0.730495
31
0.0
0
LINE
8
0
10
-24.122833
20
0.684338
30
0.0
11
-23.888903
21
0.702983
31
0.0
0
LINE
8
0
10
-23.888903
20
0.702983
30
0.0
11
-23.751083
21
0.713967
31
0.0
0
LINE
8
0
10
-24.461170
20
0.639787
30
0.0
11
-24.248265
21
0.667822
31
0.0
0
LINE
8
0
10
-24.248265
20
0.667822
30
0.0
11
-24.122833
21
0.684338
31
0.0
0
LINE
8
0
10
-24.769861
20
0.579061
30
0.0
11
-24.575611
21
0.617274
31
0.0
0
LINE
8
0
10
-24.575611
20
0.617274
30
0.0
11
-24.461170
21
0.639787
31
0.0
0
LINE
8
0
10
-25.052662
20
0.500981
30
0.0
11
-24.874704
21
0.550114
31
0.0
0
LINE
8
0
10
-24.874704
20
0.550114
30
0.0
11
-24.769861
21
0.579061
31
0.0
0
LINE
8
0
10
-25.313352
20
0.404331
30
0.0
11
-25.149308
21
0.465150
31
0.0
0
LINE
8
0
10
-25.149308
20
0.465150
30
0.0
11
-25.052662
21
0.500981
31
0.0
0
LINE
8
0
10
-29.679840
20
0.439547
30
0.0
11
-30.038171
21
0.012857
31
0.0
0
LINE
8
0
10
-30.038171
20
0.012857
30
0.0
11
-30.249282
21
-0.238526
31
0.0
0
LINE
8
0
10
-25.555704
20
0.287877
30
0.0
11
-25.403200
21
0.361158
31
0.0
0
LINE
8
0
10
-25.403200
20
0.361158
30
0.0
11
-25.313352
21
0.404331
31
0.0
0
LINE
8
0
10
-25.783483
20
0.150439
30
0.0
11
-25.640149
21
0.236925
31
0.0
0
LINE
8
0
10
-25.640149
20
0.236925
30
0.0
11
-25.555704
21
0.287877
31
0.0
0
LINE
8
0
10
-26.000444
20
-0.009232
30
0.0
11
-25.863921
21
0.091244
31
0.0
0
LINE
8
0
10
-25.863921
20
0.091244
30
0.0
11
-25.783483
21
0.150439
31
0.0
0
LINE
8
0
10
-26.218776
20
-0.205015
30
0.0
11
-26.081385
21
-0.081815
31
0.0
0
LINE
8
0
10
-26.081385
20
-0.081815
30
0.0
11
-26.000444
21
-0.009232
31
0.0
0
LINE
8
0
10
-26.218776
20
-0.205015
30
0.0
11
-26.372490
21
-0.377115
31
0.0
0
LINE
8
0
10
-26.372490
20
-0.377115
30
0.0
11
-26.463047
21
-0.478507
31
0.0
0
LINE
8
0
10
-30.249282
20
-0.238526
30
0.0
11
-30.547316
21
-0.714785
31
0.0
0
LINE
8
0
10
-30.547316
20
-0.714785
30
0.0
11
-30.722901
21
-0.995371
31
0.0
0
LINE
8
0
10
-26.463047
20
-0.478507
30
0.0
11
-26.634993
21
-0.721528
31
0.0
0
LINE
8
0
10
-26.634993
20
-0.721528
30
0.0
11
-26.736296
21
-0.864704
31
0.0
0
LINE
8
0
10
-26.998538
20
-1.349054
30
0.0
11
-26.833517
21
-1.044268
31
0.0
0
LINE
8
0
10
-26.833517
20
-1.044268
30
0.0
11
-26.736296
21
-0.864704
31
0.0
0
LINE
8
0
10
-30.722901
20
-0.995371
30
0.0
11
-30.958558
21
-1.519053
31
0.0
0
LINE
8
0
10
-30.958558
20
-1.519053
30
0.0
11
-31.097393
21
-1.827579
31
0.0
0
LINE
8
0
10
-27.208732
20
-1.894652
30
0.0
11
-27.076463
21
-1.551325
31
0.0
0
LINE
8
0
10
-27.076463
20
-1.551325
30
0.0
11
-26.998538
21
-1.349054
31
0.0
0
LINE
8
0
10
-31.097393
20
-1.827579
30
0.0
11
-31.268570
21
-2.396506
31
0.0
0
LINE
8
0
10
-31.268570
20
-2.396506
30
0.0
11
-31.369419
21
-2.731688
31
0.0
0
LINE
8
0
10
-27.354663
20
-2.479688
30
0.0
11
-27.262833
21
-2.111544
31
0.0
0
LINE
8
0
10
-27.262833
20
-2.111544
30
0.0
11
-27.208732
21
-1.894652
31
0.0
0
LINE
8
0
10
-27.436597
20
-3.091869
30
0.0
11
-27.385038
21
-2.706643
31
0.0
0
LINE
8
0
10
-27.385038
20
-2.706643
30
0.0
11
-27.354663
21
-2.479688
31
0.0
0
LINE
8
0
10
-31.369419
20
-2.731688
30
0.0
11
-31.475699
21
-3.322860
31
0.0
0
LINE
8
0
10
-31.475699
20
-3.322860
30
0.0
11
-31.538314
21
-3.671148
31
0.0
0
LINE
8
0
10
-27.454786
20
-3.718925
30
0.0
11
-27.443341
21
-3.324339
31
0.0
0
LINE
8
0
10
-27.443341
20
-3.324339
30
0.0
11
-27.436597
21
-3.091869
31
0.0
0
LINE
8
0
10
-31.538314
20
-3.671148
30
0.0
11
-31.586108
21
-4.216130
31
0.0
0
LINE
8
0
10
-31.586108
20
-4.216130
30
0.0
11
-31.614267
21
-4.537204
31
0.0
0
LINE
8
0
10
-27.409513
20
-4.348563
30
0.0
11
-27.438002
21
-3.952352
31
0.0
0
LINE
8
0
10
-27.438002
20
-3.952352
30
0.0
11
-27.454786
21
-3.718925
31
0.0
0
LINE
8
0
10
-27.301030
20
-4.968511
30
0.0
11
-27.369296
21
-4.578398
31
0.0
0
LINE
8
0
10
-27.369296
20
-4.578398
30
0.0
11
-27.409513
21
-4.348563
31
0.0
0
LINE
8
0
10
-31.614267
20
-4.537204
30
0.0
11
-31.618907
21
-4.977482
31
0.0
0
LINE
8
0
10
-31.618907
20
-4.977482
30
0.0
11
-31.621640
21
-5.236870
31
0.0
0
LINE
8
0
10
-27.129605
20
-5.566461
30
0.0
11
-27.237477
21
-5.190190
31
0.0
0
LINE
8
0
10
-27.237477
20
-5.190190
30
0.0
11
-27.301030
21
-4.968511
31
0.0
0
LINE
8
0
10
-31.621640
20
-5.236870
30
0.0
11
-31.599119
21
-5.590832
31
0.0
0
LINE
8
0
10
-31.599119
20
-5.590832
30
0.0
11
-31.585849
21
-5.799368
31
0.0
0
LINE
8
0
10
-26.895506
20
-6.130141
30
0.0
11
-27.042816
21
-5.775435
31
0.0
0
LINE
8
0
10
-27.042816
20
-5.775435
30
0.0
11
-27.129605
21
-5.566461
31
0.0
0
LINE
8
0
10
-31.585849
20
-5.799368
30
0.0
11
-31.544031
21
-6.115139
31
0.0
0
LINE
8
0
10
-31.544031
20
-6.115139
30
0.0
11
-31.519392
21
-6.301174
31
0.0
0
LINE
8
0
10
-26.612825
20
-6.635155
30
0.0
11
-26.790707
21
-6.317366
31
0.0
0
LINE
8
0
10
-26.790707
20
-6.317366
30
0.0
11
-26.895506
21
-6.130141
31
0.0
0
LINE
8
0
10
-31.519392
20
-6.301174
30
0.0
11
-31.459270
21
-6.597366
31
0.0
0
LINE
8
0
10
-31.459270
20
-6.597366
30
0.0
11
-31.423851
21
-6.771867
31
0.0
0
LINE
8
0
10
-26.197444
20
-7.178677
30
0.0
11
-26.458831
21
-6.836656
31
0.0
0
LINE
8
0
10
-26.458831
20
-6.836656
30
0.0
11
-26.612825
21
-6.635155
31
0.0
0
LINE
8
0
10
-31.423851
20
-6.771867
30
0.0
11
-31.344719
21
-7.050179
31
0.0
0
LINE
8
0
10
-31.344719
20
-7.050179
30
0.0
11
-31.298099
21
-7.214146
31
0.0
0
LINE
8
0
10
-31.298099
20
-7.214146
30
0.0
11
-31.199219
21
-7.476269
31
0.0
0
LINE
8
0
10
-31.199219
20
-7.476269
30
0.0
11
-31.140964
21
-7.630697
31
0.0
0
LINE
8
0
10
-31.140964
20
-7.630697
30
0.0
11
-31.021603
21
-7.878361
31
0.0
0
LINE
8
0
10
-31.021603
20
-7.878361
30
0.0
11
-30.951282
21
-8.024271
31
0.0
0
LINE
8
0
10
-24.498989
20
-8.242625
30
0.0
11
-24.906245
21
-8.060285
31
0.0
0
LINE
8
0
10
-24.906245
20
-8.060285
30
0.0
11
-25.146180
21
-7.952860
31
0.0
0
LINE
8
0
10
-30.951282
20
-8.024271
30
0.0
11
-30.810713
21
-8.259167
31
0.0
0
LINE
8
0
10
-30.810713
20
-8.259167
30
0.0
11
-30.727896
21
-8.397555
31
0.0
0
LINE
8
0
10
-23.068468
20
-8.552129
30
0.0
11
-23.968649
21
-8.357368
31
0.0
0
LINE
8
0
10
-23.968649
20
-8.357368
30
0.0
11
-24.498989
21
-8.242625
31
0.0
0
LINE
8
0
10
-23.068468
20
-8.552129
30
0.0
11
-22.213760
21
-8.640622
31
0.0
0
LINE
8
0
10
-22.213760
20
-8.640622
30
0.0
11
-21.710211
21
-8.692757
31
0.0
0
LINE
8
0
10
-30.727896
20
-8.397555
30
0.0
11
-30.565391
21
-8.621379
31
0.0
0
LINE
8
0
10
-30.565391
20
-8.621379
30
0.0
11
-30.469654
21
-8.753245
31
0.0
0
LINE
8
0
10
-26.197444
20
-7.178677
30
0.0
11
-25.886633
21
-7.453547
31
0.0
0
LINE
8
0
10
-25.886633
20
-7.453547
30
0.0
11
-25.703520
21
-7.615487
31
0.0
0
LINE
8
0
10
-30.469654
20
-8.753245
30
0.0
11
-30.284476
21
-8.967710
31
0.0
0
LINE
8
0
10
-30.284476
20
-8.967710
30
0.0
11
-30.175377
21
-9.094062
31
0.0
0
LINE
8
0
10
-30.175377
20
-9.094062
30
0.0
11
-29.968153
21
-9.300327
31
0.0
0
LINE
8
0
10
-29.968153
20
-9.300327
30
0.0
11
-29.846069
21
-9.421848
31
0.0
0
LINE
8
0
10
-29.846069
20
-9.421848
30
0.0
11
-29.623014
21
-9.618572
31
0.0
0
LINE
8
0
10
-29.623014
20
-9.618572
30
0.0
11
-29.491602
21
-9.734473
31
0.0
0
LINE
8
0
10
-29.491602
20
-9.734473
30
0.0
11
-29.265911
21
-9.916792
31
0.0
0
LINE
8
0
10
-29.265911
20
-9.916792
30
0.0
11
-29.132945
21
-10.024205
31
0.0
0
LINE
8
0
10
-29.132945
20
-10.024205
30
0.0
11
-28.917121
21
-10.186861
31
0.0
0
LINE
8
0
10
-28.917121
20
-10.186861
30
0.0
11
-28.789970
21
-10.282688
31
0.0
0
LINE
8
0
10
-25.703520
20
-7.615487
30
0.0
11
-25.352805
21
-7.827785
31
0.0
0
LINE
8
0
10
-25.352805
20
-7.827785
30
0.0
11
-25.146180
21
-7.952860
31
0.0
0
LINE
8
0
10
-28.789970
20
-10.282688
30
0.0
11
-28.465873
21
-10.459876
31
0.0
0
LINE
8
0
10
-28.465873
20
-10.459876
30
0.0
11
-28.274933
21
-10.564266
31
0.0
0
LINE
8
0
10
-28.274933
20
-10.564266
30
0.0
11
-27.963130
21
-10.734730
31
0.0
0
LINE
8
0
10
-27.963130
20
-10.734730
30
0.0
11
-27.779432
21
-10.835158
31
0.0
0
LINE
8
0
10
-27.779432
20
-10.835158
30
0.0
11
-27.123009
21
-11.042878
31
0.0
0
LINE
8
0
10
-27.123009
20
-11.042878
30
0.0
11
-26.736277
21
-11.165256
31
0.0
0
LINE
8
0
10
-25.684784
20
-11.323425
30
0.0
11
-24.865812
21
-11.424996
31
0.0
0
LINE
8
0
10
-24.865812
20
-11.424996
30
0.0
11
-24.383315
21
-11.484836
31
0.0
0
LINE
8
0
10
-13.691420
20
0.104300
30
0.0
11
-13.547305
21
0.072610
31
0.0
0
LINE
8
0
10
-13.547305
20
0.072610
30
0.0
11
-13.462401
21
0.053940
31
0.0
0
LINE
8
0
10
-13.282198
20
-0.012863
30
0.0
11
-13.395576
21
0.029174
31
0.0
0
LINE
8
0
10
-13.395576
20
0.029174
30
0.0
11
-13.462401
21
0.053940
31
0.0
0
LINE
8
0
10
-13.136647
20
-0.098439
30
0.0
11
-13.228254
21
-0.044589
31
0.0
0
LINE
8
0
10
-13.228254
20
-0.044589
30
0.0
11
-13.282198
21
-0.012863
31
0.0
0
LINE
8
0
10
-13.011939
20
-0.205101
30
0.0
11
-13.090413
21
-0.137982
31
0.0
0
LINE
8
0
10
-13.090413
20
-0.137982
30
0.0
11
-13.136647
21
-0.098439
31
0.0
0
LINE
8
0
10
-13.011939
20
-0.205101
30
0.0
11
-12.937764
21
-0.286943
31
0.0
0
LINE
8
0
10
-12.937764
20
-0.286943
30
0.0
11
-12.894054
21
-0.335161
31
0.0
0
LINE
8
0
10
-12.768942
20
-0.490984
30
0.0
11
-12.847673
21
-0.392929
31
0.0
0
LINE
8
0
10
-12.847673
20
-0.392929
30
0.0
11
-12.894054
21
-0.335161
31
0.0
0
LINE
8
0
10
-12.768942
20
-0.490984
30
0.0
11
-12.675501
21
-0.627973
31
0.0
0
LINE
8
0
10
-12.675501
20
-0.627973
30
0.0
11
-12.620458
21
-0.708679
31
0.0
0
LINE
8
0
10
-12.620458
20
-0.708679
30
0.0
11
-12.542305
21
-0.860817
31
0.0
0
LINE
8
0
10
-12.542305
20
-0.860817
30
0.0
11
-12.496262
21
-0.950449
31
0.0
0
LINE
8
0
10
-12.396547
20
-1.211482
30
0.0
11
-12.459295
21
-1.047222
31
0.0
0
LINE
8
0
10
-12.459295
20
-1.047222
30
0.0
11
-12.496262
21
-0.950449
31
0.0
0
LINE
8
0
10
-16.815912
20
-1.103334
30
0.0
11
-16.669968
21
-1.126366
31
0.0
0
LINE
8
0
10
-16.669968
20
-1.126366
30
0.0
11
-16.583986
21
-1.139935
31
0.0
0
LINE
8
0
10
-16.583986
20
-1.139935
30
0.0
11
-16.455587
21
-1.204355
31
0.0
0
LINE
8
0
10
-16.455587
20
-1.204355
30
0.0
11
-16.379942
21
-1.242308
31
0.0
0
LINE
8
0
10
-12.321516
20
-1.486999
30
0.0
11
-12.368730
21
-1.313625
31
0.0
0
LINE
8
0
10
-12.368730
20
-1.313625
30
0.0
11
-12.396547
21
-1.211482
31
0.0
0
LINE
8
0
10
-16.379942
20
-1.242308
30
0.0
11
-16.270485
21
-1.341074
31
0.0
0
LINE
8
0
10
-16.270485
20
-1.341074
30
0.0
11
-16.206003
21
-1.399262
31
0.0
0
LINE
8
0
10
-16.206003
20
-1.399262
30
0.0
11
-16.116880
21
-1.525341
31
0.0
0
LINE
8
0
10
-16.116880
20
-1.525341
30
0.0
11
-16.064373
21
-1.599620
31
0.0
0
LINE
8
0
10
-12.271377
20
-1.772139
30
0.0
11
-12.302928
21
-1.592710
31
0.0
0
LINE
8
0
10
-12.302928
20
-1.592710
30
0.0
11
-12.321516
21
-1.486999
31
0.0
0
LINE
8
0
10
-16.064373
20
-1.599620
30
0.0
11
-15.996992
21
-1.745990
31
0.0
0
LINE
8
0
10
-15.996992
20
-1.745990
30
0.0
11
-15.957285
21
-1.832223
31
0.0
0
LINE
8
0
10
-12.246330
20
-2.062125
30
0.0
11
-12.262091
21
-1.879646
31
0.0
0
LINE
8
0
10
-12.262091
20
-1.879646
30
0.0
11
-12.271377
21
-1.772139
31
0.0
0
LINE
8
0
10
-15.957285
20
-1.832223
30
0.0
11
-15.912978
21
-1.991840
31
0.0
0
LINE
8
0
10
-15.912978
20
-1.991840
30
0.0
11
-15.886876
21
-2.085878
31
0.0
0
LINE
8
0
10
-12.246587
20
-2.352110
30
0.0
11
-12.246425
21
-2.169632
31
0.0
0
LINE
8
0
10
-12.246425
20
-2.169632
30
0.0
11
-12.246330
21
-2.062125
31
0.0
0
LINE
8
0
10
-15.886876
20
-2.085878
30
0.0
11
-15.867052
21
-2.251731
31
0.0
0
LINE
8
0
10
-15.867052
20
-2.251731
30
0.0
11
-15.855375
21
-2.349442
31
0.0
0
LINE
8
0
10
-15.855375
20
-2.349442
30
0.0
11
-15.861428
21
-2.514477
31
0.0
0
LINE
8
0
10
-15.861428
20
-2.514477
30
0.0
11
-15.864994
21
-2.611707
31
0.0
0
LINE
8
0
10
-12.272351
20
-2.637301
30
0.0
11
-12.256138
21
-2.457839
31
0.0
0
LINE
8
0
10
-12.256138
20
-2.457839
30
0.0
11
-12.246587
21
-2.352110
31
0.0
0
LINE
8
0
10
-15.864994
20
-2.611707
30
0.0
11
-15.898305
21
-2.768902
31
0.0
0
LINE
8
0
10
-15.898305
20
-2.768902
30
0.0
11
-15.917931
21
-2.861513
31
0.0
0
LINE
8
0
10
-12.323830
20
-2.912886
30
0.0
11
-12.291435
21
-2.739469
31
0.0
0
LINE
8
0
10
-12.291435
20
-2.739469
30
0.0
11
-12.272351
21
-2.637301
31
0.0
0
LINE
8
0
10
-15.917931
20
-2.861513
30
0.0
11
-15.979881
21
-3.003835
31
0.0
0
LINE
8
0
10
-15.979881
20
-3.003835
30
0.0
11
-16.016380
21
-3.087684
31
0.0
0
LINE
8
0
10
-12.401225
20
-3.174036
30
0.0
11
-12.352523
21
-3.009703
31
0.0
0
LINE
8
0
10
-12.352523
20
-3.009703
30
0.0
11
-12.323830
21
-2.912886
31
0.0
0
LINE
8
0
10
-16.016380
20
-3.087684
30
0.0
11
-16.108362
21
-3.208111
31
0.0
0
LINE
8
0
10
-16.108362
20
-3.208111
30
0.0
11
-16.162553
21
-3.279060
31
0.0
0
LINE
8
0
10
-12.504756
20
-3.415959
30
0.0
11
-12.439605
21
-3.263725
31
0.0
0
LINE
8
0
10
-12.439605
20
-3.263725
30
0.0
11
-12.401225
21
-3.174036
31
0.0
0
LINE
8
0
10
-16.358629
20
-3.424450
30
0.0
11
-16.235246
21
-3.332961
31
0.0
0
LINE
8
0
10
-16.235246
20
-3.332961
30
0.0
11
-16.162553
21
-3.279060
31
0.0
0
LINE
8
0
10
-12.634852
20
-3.633823
30
0.0
11
-12.552922
21
-3.496728
31
0.0
0
LINE
8
0
10
-12.552922
20
-3.496728
30
0.0
11
-12.504756
21
-3.415959
31
0.0
0
LINE
8
0
10
-16.534075
20
-3.516339
30
0.0
11
-16.423678
21
-3.458516
31
0.0
0
LINE
8
0
10
-16.423678
20
-3.458516
30
0.0
11
-16.358629
21
-3.424450
31
0.0
0
LINE
8
0
10
-16.681707
20
-3.586367
30
0.0
11
-16.588785
21
-3.542301
31
0.0
0
LINE
8
0
10
-16.588785
20
-3.542301
30
0.0
11
-16.534075
21
-3.516339
31
0.0
0
LINE
8
0
10
-16.681707
20
-3.586367
30
0.0
11
-16.758488
21
-3.614721
31
0.0
0
LINE
8
0
10
-16.758488
20
-3.614721
30
0.0
11
-16.803732
21
-3.631425
31
0.0
0
LINE
8
0
10
-16.803732
20
-3.631425
30
0.0
11
-16.866027
21
-3.642102
31
0.0
0
LINE
8
0
10
-16.866027
20
-3.642102
30
0.0
11
-16.902715
21
-3.648392
31
0.0
0
LINE
8
0
10
-12.849835
20
-3.864586
30
0.0
11
-12.714617
21
-3.719374
31
0.0
0
LINE
8
0
10
-12.714617
20
-3.719374
30
0.0
11
-12.634852
21
-3.633823
31
0.0
0
LINE
8
0
10
-12.260275
20
-5.324322
30
0.0
11
-12.620689
21
-4.779276
31
0.0
0
LINE
8
0
10
-12.620689
20
-4.779276
30
0.0
11
-12.833035
21
-4.458163
31
0.0
0
LINE
8
0
10
-11.872857
20
-5.910184
30
0.0
11
-12.116648
21
-5.541519
31
0.0
0
LINE
8
0
10
-12.116648
20
-5.541519
30
0.0
11
-12.260275
21
-5.324322
31
0.0
0
LINE
8
0
10
-11.840026
20
-6.001247
30
0.0
11
-11.860685
21
-5.943944
31
0.0
0
LINE
8
0
10
-11.860685
20
-5.943944
30
0.0
11
-11.872857
21
-5.910184
31
0.0
0
LINE
8
0
10
-12.257852
20
-6.586839
30
0.0
11
-12.126016
21
-6.494894
31
0.0
0
LINE
8
0
10
-12.126016
20
-6.494894
30
0.0
11
-12.048351
21
-6.440724
31
0.0
0
LINE
8
0
10
-12.512807
20
-6.754935
30
0.0
11
-12.352372
21
-6.649158
31
0.0
0
LINE
8
0
10
-12.352372
20
-6.649158
30
0.0
11
-12.257852
21
-6.586839
31
0.0
0
LINE
8
0
10
-12.798689
20
-6.936233
30
0.0
11
-12.618794
21
-6.822148
31
0.0
0
LINE
8
0
10
-12.618794
20
-6.822148
30
0.0
11
-12.512807
21
-6.754935
31
0.0
0
LINE
8
0
10
-13.100960
20
-7.121887
30
0.0
11
-12.910750
21
-7.005061
31
0.0
0
LINE
8
0
10
-12.910750
20
-7.005061
30
0.0
11
-12.798689
21
-6.936233
31
0.0
0
LINE
8
0
10
-13.405081
20
-7.303150
30
0.0
11
-13.213704
21
-7.189087
31
0.0
0
LINE
8
0
10
-13.213704
20
-7.189087
30
0.0
11
-13.100960
21
-7.121887
31
0.0
0
LINE
8
0
10
-13.696473
20
-7.471162
30
0.0
11
-13.513113
21
-7.365437
31
0.0
0
LINE
8
0
10
-13.513113
20
-7.365437
30
0.0
11
-13.405081
21
-7.303150
31
0.0
0
LINE
8
0
10
-13.960610
20
-7.617176
30
0.0
11
-13.794403
21
-7.525294
31
0.0
0
LINE
8
0
10
-13.794403
20
-7.525294
30
0.0
11
-13.696473
21
-7.471162
31
0.0
0
LINE
8
0
10
-11.879906
20
6.965509
30
0.0
11
-11.885544
21
6.709846
31
0.0
0
LINE
8
0
10
-11.885544
20
6.709846
30
0.0
11
-11.888865
21
6.559222
31
0.0
0
LINE
8
0
10
-11.888865
20
6.559222
30
0.0
11
-11.894186
21
6.317901
31
0.0
0
LINE
8
0
10
-11.894186
20
6.317901
30
0.0
11
-11.897320
21
6.175727
31
0.0
0
LINE
8
0
10
-11.897320
20
6.175727
30
0.0
11
-11.902008
21
5.963067
31
0.0
0
LINE
8
0
10
-11.902008
20
5.963067
30
0.0
11
-11.904770
21
5.837779
31
0.0
0
LINE
8
0
10
-11.904770
20
5.837779
30
0.0
11
-11.908513
21
5.668133
31
0.0
0
LINE
8
0
10
-11.908513
20
5.668133
30
0.0
11
-11.910718
21
5.568187
31
0.0
0
LINE
8
0
10
-11.910718
20
5.568187
30
0.0
11
-11.913193
21
5.455887
31
0.0
0
LINE
8
0
10
-11.913193
20
5.455887
30
0.0
11
-11.914651
21
5.389725
31
0.0
0
LINE
8
0
10
-11.930094
20
4.637961
30
0.0
11
-11.935618
21
4.269296
31
0.0
0
LINE
8
0
10
-11.935618
20
4.269296
30
0.0
11
-11.938872
21
4.052099
31
0.0
0
LINE
8
0
10
-11.938872
20
4.052099
30
0.0
11
-11.940491
21
3.741916
31
0.0
0
LINE
8
0
10
-11.940491
20
3.741916
30
0.0
11
-11.941445
21
3.559172
31
0.0
0
LINE
8
0
10
-11.941445
20
3.559172
30
0.0
11
-11.938556
21
3.302234
31
0.0
0
LINE
8
0
10
-11.938556
20
3.302234
30
0.0
11
-11.936855
21
3.150860
31
0.0
0
LINE
8
0
10
-11.936855
20
3.150860
30
0.0
11
-11.928844
21
2.941865
31
0.0
0
LINE
8
0
10
-11.928844
20
2.941865
30
0.0
11
-11.924132
21
2.818736
31
0.0
0
LINE
8
0
10
-6.547353
20
0.679222
30
0.0
11
-6.304301
21
0.681208
31
0.0
0
LINE
8
0
10
-6.304301
20
0.681208
30
0.0
11
-6.161111
21
0.682379
31
0.0
0
LINE
8
0
10
-6.161111
20
0.682379
30
0.0
11
-5.921257
21
0.669790
31
0.0
0
LINE
8
0
10
-5.921257
20
0.669790
30
0.0
11
-5.779944
21
0.662374
31
0.0
0
LINE
8
0
10
-6.933867
20
0.653088
30
0.0
11
-6.690645
21
0.669533
31
0.0
0
LINE
8
0
10
-6.690645
20
0.669533
30
0.0
11
-6.547353
21
0.679222
31
0.0
0
LINE
8
0
10
-5.408552
20
0.619037
30
0.0
11
-5.642255
21
0.646307
31
0.0
0
LINE
8
0
10
-5.642255
20
0.646307
30
0.0
11
-5.779944
21
0.662374
31
0.0
0
LINE
8
0
10
-6.933867
20
0.653088
30
0.0
11
-7.174297
21
0.622302
31
0.0
0
LINE
8
0
10
-7.174297
20
0.622302
30
0.0
11
-7.315945
21
0.604164
31
0.0
0
LINE
8
0
10
-5.051671
20
0.552183
30
0.0
11
-5.276245
21
0.594252
31
0.0
0
LINE
8
0
10
-5.276245
20
0.594252
30
0.0
11
-5.408552
21
0.619037
31
0.0
0
LINE
8
0
10
-7.315945
20
0.604164
30
0.0
11
-7.550613
21
0.559152
31
0.0
0
LINE
8
0
10
-7.550613
20
0.559152
30
0.0
11
-7.688861
21
0.532634
31
0.0
0
LINE
8
0
10
-4.714044
20
0.461509
30
0.0
11
-4.926502
21
0.518567
31
0.0
0
LINE
8
0
10
-4.926502
20
0.518567
30
0.0
11
-5.051671
21
0.552183
31
0.0
0
LINE
8
0
10
-7.688861
20
0.532634
30
0.0
11
-7.914742
21
0.473494
31
0.0
0
LINE
8
0
10
-7.914742
20
0.473494
30
0.0
11
-8.047822
21
0.438651
31
0.0
0
LINE
8
0
10
-4.714044
20
0.461509
30
0.0
11
-4.515232
21
0.388494
31
0.0
0
LINE
8
0
10
-4.515232
20
0.388494
30
0.0
11
-4.398102
21
0.345478
31
0.0
0
LINE
8
0
10
-8.047822
20
0.438651
30
0.0
11
-8.278345
21
0.355002
31
0.0
0
LINE
8
0
10
-8.278345
20
0.355002
30
0.0
11
-8.414161
21
0.305721
31
0.0
0
LINE
8
0
10
-4.398102
20
0.345478
30
0.0
11
-4.210194
21
0.254021
31
0.0
0
LINE
8
0
10
-4.210194
20
0.254021
30
0.0
11
-4.099489
21
0.200139
31
0.0
0
LINE
8
0
10
-8.414161
20
0.305721
30
0.0
11
-8.691886
21
0.163399
31
0.0
0
LINE
8
0
10
-8.691886
20
0.163399
30
0.0
11
-8.855508
21
0.079550
31
0.0
0
LINE
8
0
10
-3.809251
20
0.021441
30
0.0
11
-3.991889
21
0.133890
31
0.0
0
LINE
8
0
10
-3.991889
20
0.133890
30
0.0
11
-4.099489
21
0.200139
31
0.0
0
LINE
8
0
10
-8.855508
20
0.079550
30
0.0
11
-9.196012
21
-0.152657
31
0.0
0
LINE
8
0
10
-9.196012
20
-0.152657
30
0.0
11
-9.396618
21
-0.289461
31
0.0
0
LINE
8
0
10
-3.522879
20
-0.190498
30
0.0
11
-3.703084
21
-0.057132
31
0.0
0
LINE
8
0
10
-3.703084
20
-0.057132
30
0.0
11
-3.809251
21
0.021441
31
0.0
0
LINE
8
0
10
-3.242567
20
-0.431643
30
0.0
11
-3.418958
21
-0.279898
31
0.0
0
LINE
8
0
10
-3.418958
20
-0.279898
30
0.0
11
-3.522879
21
-0.190498
31
0.0
0
LINE
8
0
10
-9.396618
20
-0.289461
30
0.0
11
-9.743443
21
-0.603468
31
0.0
0
LINE
8
0
10
-9.743443
20
-0.603468
30
0.0
11
-9.947775
21
-0.788465
31
0.0
0
LINE
8
0
10
-2.972722
20
-0.696744
30
0.0
11
-3.142527
21
-0.529925
31
0.0
0
LINE
8
0
10
-3.142527
20
-0.529925
30
0.0
11
-3.242567
21
-0.431643
31
0.0
0
LINE
8
0
10
-2.972722
20
-0.696744
30
0.0
11
-2.812293
21
-0.875335
31
0.0
0
LINE
8
0
10
-2.812293
20
-0.875335
30
0.0
11
-2.717776
21
-0.980551
31
0.0
0
LINE
8
0
10
-9.947775
20
-0.788465
30
0.0
11
-10.236282
21
-1.156014
31
0.0
0
LINE
8
0
10
-10.236282
20
-1.156014
30
0.0
11
-10.406256
21
-1.372555
31
0.0
0
LINE
8
0
10
-2.717776
20
-0.980551
30
0.0
11
-2.569516
21
-1.167629
31
0.0
0
LINE
8
0
10
-2.569516
20
-1.167629
30
0.0
11
-2.482168
21
-1.277846
31
0.0
0
LINE
8
0
10
-6.821812
20
-1.240503
30
0.0
11
-6.771622
21
-1.255567
31
0.0
0
LINE
8
0
10
-6.771622
20
-1.255567
30
0.0
11
-6.742047
21
-1.264441
31
0.0
0
LINE
8
0
10
-6.742047
20
-1.264441
30
0.0
11
-6.685492
21
-1.288398
31
0.0
0
LINE
8
0
10
-6.685492
20
-1.288398
30
0.0
11
-6.652165
21
-1.302511
31
0.0
0
LINE
8
0
10
-2.270297
20
-1.583347
30
0.0
11
-2.403621
21
-1.391105
31
0.0
0
LINE
8
0
10
-2.403621
20
-1.391105
30
0.0
11
-2.482168
21
-1.277846
31
0.0
0
LINE
8
0
10
-6.652165
20
-1.302511
30
0.0
11
-6.588294
21
-1.334817
31
0.0
0
LINE
8
0
10
-6.588294
20
-1.334817
30
0.0
11
-6.550669
21
-1.353850
31
0.0
0
LINE
8
0
10
-10.406256
20
-1.372555
30
0.0
11
-10.616007
21
-1.775384
31
0.0
0
LINE
8
0
10
-10.616007
20
-1.775384
30
0.0
11
-10.739583
21
-2.012711
31
0.0
0
LINE
8
0
10
-6.550669
20
-1.353850
30
0.0
11
-6.380388
21
-1.461592
31
0.0
0
LINE
8
0
10
-6.380388
20
-1.461592
30
0.0
11
-6.280072
21
-1.525069
31
0.0
0
LINE
8
0
10
-7.171898
20
-1.441552
30
0.0
11
-7.140098
21
-1.391952
31
0.0
0
LINE
8
0
10
-7.140098
20
-1.391952
30
0.0
11
-7.121372
21
-1.362730
31
0.0
0
LINE
8
0
10
-7.222739
20
-1.540499
30
0.0
11
-7.190747
21
-1.478235
31
0.0
0
LINE
8
0
10
-7.190747
20
-1.478235
30
0.0
11
-7.171898
21
-1.441552
31
0.0
0
LINE
8
0
10
-6.280072
20
-1.525069
30
0.0
11
-6.128139
21
-1.655323
31
0.0
0
LINE
8
0
10
-6.128139
20
-1.655323
30
0.0
11
-6.038626
21
-1.732061
31
0.0
0
LINE
8
0
10
-7.275416
20
-1.660447
30
0.0
11
-7.242271
21
-1.584968
31
0.0
0
LINE
8
0
10
-7.242271
20
-1.584968
30
0.0
11
-7.222739
21
-1.540499
31
0.0
0
LINE
8
0
10
-2.011063
20
-2.045007
30
0.0
11
-2.174191
21
-1.754499
31
0.0
0
LINE
8
0
10
-2.174191
20
-1.754499
30
0.0
11
-2.270297
21
-1.583347
31
0.0
0
LINE
8
0
10
-7.331442
20
-1.802224
30
0.0
11
-7.296186
21
-1.713008
31
0.0
0
LINE
8
0
10
-7.296186
20
-1.713008
30
0.0
11
-7.275416
21
-1.660447
31
0.0
0
LINE
8
0
10
-6.038626
20
-1.732061
30
0.0
11
-5.905522
21
-1.883148
31
0.0
0
LINE
8
0
10
-5.905522
20
-1.883148
30
0.0
11
-5.827108
21
-1.972160
31
0.0
0
LINE
8
0
10
-7.410933
20
-2.051996
30
0.0
11
-7.360909
21
-1.894822
31
0.0
0
LINE
8
0
10
-7.360909
20
-1.894822
30
0.0
11
-7.331442
21
-1.802224
31
0.0
0
LINE
8
0
10
-5.827108
20
-1.972160
30
0.0
11
-5.713361
21
-2.142389
31
0.0
0
LINE
8
0
10
-5.713361
20
-2.142389
30
0.0
11
-5.646348
21
-2.242680
31
0.0
0
LINE
8
0
10
-10.739583
20
-2.012711
30
0.0
11
-10.870291
21
-2.439592
31
0.0
0
LINE
8
0
10
-10.870291
20
-2.439592
30
0.0
11
-10.947297
21
-2.691088
31
0.0
0
LINE
8
0
10
-7.463855
20
-2.311289
30
0.0
11
-7.430552
21
-2.148124
31
0.0
0
LINE
8
0
10
-7.430552
20
-2.148124
30
0.0
11
-7.410933
21
-2.051996
31
0.0
0
LINE
8
0
10
-1.697484
20
-3.339365
30
0.0
11
-1.750171
21
-2.912038
31
0.0
0
LINE
8
0
10
-1.750171
20
-2.912038
30
0.0
11
-1.781211
21
-2.660279
31
0.0
0
LINE
8
0
10
-5.646348
20
-2.242680
30
0.0
11
-5.552449
21
-2.430375
31
0.0
0
LINE
8
0
10
-5.552449
20
-2.430375
30
0.0
11
-5.497128
21
-2.540955
31
0.0
0
LINE
8
0
10
-7.490663
20
-2.578079
30
0.0
11
-7.473794
21
-2.410197
31
0.0
0
LINE
8
0
10
-7.473794
20
-2.410197
30
0.0
11
-7.463855
21
-2.311289
31
0.0
0
LINE
8
0
10
-5.497128
20
-2.540955
30
0.0
11
-5.423583
21
-2.744425
31
0.0
0
LINE
8
0
10
-5.423583
20
-2.744425
30
0.0
11
-5.380259
21
-2.864300
31
0.0
0
LINE
8
0
10
-7.491807
20
-2.850287
30
0.0
11
-7.491088
21
-2.678995
31
0.0
0
LINE
8
0
10
-7.491088
20
-2.678995
30
0.0
11
-7.490663
21
-2.578079
31
0.0
0
LINE
8
0
10
-10.947297
20
-2.691088
30
0.0
11
-10.998663
21
-3.130812
31
0.0
0
LINE
8
0
10
-10.998663
20
-3.130812
30
0.0
11
-11.028926
21
-3.389875
31
0.0
0
LINE
8
0
10
-1.763831
20
-4.072406
30
0.0
11
-1.722081
21
-3.611126
31
0.0
0
LINE
8
0
10
-1.722081
20
-3.611126
30
0.0
11
-1.697484
21
-3.339365
31
0.0
0
LINE
8
0
10
-7.467749
20
-3.125906
30
0.0
11
-7.482888
21
-2.952468
31
0.0
0
LINE
8
0
10
-7.482888
20
-2.952468
30
0.0
11
-7.491807
21
-2.850287
31
0.0
0
LINE
8
0
10
-5.380259
20
-2.864300
30
0.0
11
-5.327578
21
-3.081867
31
0.0
0
LINE
8
0
10
-5.327578
20
-3.081867
30
0.0
11
-5.296541
21
-3.210047
31
0.0
0
LINE
8
0
10
-7.418918
20
-3.402908
30
0.0
11
-7.449646
21
-3.228600
31
0.0
0
LINE
8
0
10
-7.449646
20
-3.228600
30
0.0
11
-7.467749
21
-3.125906
31
0.0
0
LINE
8
0
10
-5.296541
20
-3.210047
30
0.0
11
-5.265228
21
-3.440033
31
0.0
0
LINE
8
0
10
-5.265228
20
-3.440033
30
0.0
11
-5.246778
21
-3.575529
31
0.0
0
LINE
8
0
10
-11.028926
20
-3.389875
30
0.0
11
-11.000663
21
-3.831236
31
0.0
0
LINE
8
0
10
-11.000663
20
-3.831236
30
0.0
11
-10.984013
21
-4.091263
31
0.0
0
LINE
8
0
10
-7.345777
20
-3.679220
30
0.0
11
-7.391802
21
-3.505346
31
0.0
0
LINE
8
0
10
-7.391802
20
-3.505346
30
0.0
11
-7.418918
21
-3.402908
31
0.0
0
LINE
8
0
10
-1.975591
20
-4.798222
30
0.0
11
-1.842337
21
-4.341489
31
0.0
0
LINE
8
0
10
-1.842337
20
-4.341489
30
0.0
11
-1.763831
21
-4.072406
31
0.0
0
LINE
8
0
10
-5.246778
20
-3.575529
30
0.0
11
-5.237335
21
-3.816235
31
0.0
0
LINE
8
0
10
-5.237335
20
-3.816235
30
0.0
11
-5.231771
21
-3.958046
31
0.0
0
LINE
8
0
10
-7.248762
20
-3.952829
30
0.0
11
-7.309810
21
-3.780656
31
0.0
0
LINE
8
0
10
-7.309810
20
-3.780656
30
0.0
11
-7.345777
21
-3.679220
31
0.0
0
LINE
8
0
10
-7.128342
20
-4.221695
30
0.0
11
-7.204118
21
-4.052506
31
0.0
0
LINE
8
0
10
-7.204118
20
-4.052506
30
0.0
11
-7.248762
21
-3.952829
31
0.0
0
LINE
8
0
10
-5.231771
20
-3.958046
30
0.0
11
-5.244703
21
-4.207813
31
0.0
0
LINE
8
0
10
-5.244703
20
-4.207813
30
0.0
11
-5.252322
21
-4.354964
31
0.0
0
LINE
8
0
10
-10.984013
20
-4.091263
30
0.0
11
-10.875820
21
-4.523041
31
0.0
0
LINE
8
0
10
-10.875820
20
-4.523041
30
0.0
11
-10.812080
21
-4.777423
31
0.0
0
LINE
8
0
10
-6.984957
20
-4.483774
30
0.0
11
-7.075185
21
-4.318856
31
0.0
0
LINE
8
0
10
-7.075185
20
-4.318856
30
0.0
11
-7.128342
21
-4.221695
31
0.0
0
LINE
8
0
10
-2.217989
20
-5.319966
30
0.0
11
-2.065455
21
-4.991649
31
0.0
0
LINE
8
0
10
-2.065455
20
-4.991649
30
0.0
11
-1.975591
21
-4.798222
31
0.0
0
LINE
8
0
10
-5.252322
20
-4.354964
30
0.0
11
-5.288128
21
-4.612093
31
0.0
0
LINE
8
0
10
-5.288128
20
-4.612093
30
0.0
11
-5.309223
21
-4.763580
31
0.0
0
LINE
8
0
10
-6.819041
20
-4.737041
30
0.0
11
-6.923448
21
-4.577668
31
0.0
0
LINE
8
0
10
-6.923448
20
-4.577668
30
0.0
11
-6.984957
21
-4.483774
31
0.0
0
LINE
8
0
10
-6.631070
20
-4.979402
30
0.0
11
-6.749353
21
-4.826892
31
0.0
0
LINE
8
0
10
-6.749353
20
-4.826892
30
0.0
11
-6.819041
21
-4.737041
31
0.0
0
LINE
8
0
10
-5.309223
20
-4.763580
30
0.0
11
-5.368425
21
-5.026393
31
0.0
0
LINE
8
0
10
-5.368425
20
-5.026393
30
0.0
11
-5.403302
21
-5.181228
31
0.0
0
LINE
8
0
10
-10.812080
20
-4.777423
30
0.0
11
-10.623667
21
-5.188411
31
0.0
0
LINE
8
0
10
-10.623667
20
-5.188411
30
0.0
11
-10.512663
21
-5.430545
31
0.0
0
LINE
8
0
10
-6.445199
20
-5.194988
30
0.0
11
-6.562161
21
-5.059326
31
0.0
0
LINE
8
0
10
-6.562161
20
-5.059326
30
0.0
11
-6.631070
21
-4.979402
31
0.0
0
LINE
8
0
10
-5.403302
20
-5.181228
30
0.0
11
-5.436426
21
-5.292221
31
0.0
0
LINE
8
0
10
-5.436426
20
-5.292221
30
0.0
11
-5.455941
21
-5.357613
31
0.0
0
LINE
8
0
10
-6.280676
20
-5.373432
30
0.0
11
-6.384207
21
-5.261143
31
0.0
0
LINE
8
0
10
-6.384207
20
-5.261143
30
0.0
11
-6.445199
21
-5.194988
31
0.0
0
LINE
8
0
10
-2.420707
20
-5.648004
30
0.0
11
-2.293142
21
-5.441580
31
0.0
0
LINE
8
0
10
-2.293142
20
-5.441580
30
0.0
11
-2.217989
21
-5.319966
31
0.0
0
LINE
8
0
10
-5.455941
20
-5.357613
30
0.0
11
-5.490859
21
-5.447137
31
0.0
0
LINE
8
0
10
-5.490859
20
-5.447137
30
0.0
11
-5.511437
21
-5.499880
31
0.0
0
LINE
8
0
10
-6.280676
20
-5.373432
30
0.0
11
-6.189428
21
-5.462531
31
0.0
0
LINE
8
0
10
-6.189428
20
-5.462531
30
0.0
11
-6.135666
21
-5.515023
31
0.0
0
LINE
8
0
10
-10.512663
20
-5.430545
30
0.0
11
-10.243733
21
-5.809524
31
0.0
0
LINE
8
0
10
-10.243733
20
-5.809524
30
0.0
11
-10.085294
21
-6.032799
31
0.0
0
LINE
8
0
10
-5.511437
20
-5.499880
30
0.0
11
-5.549334
21
-5.567742
31
0.0
0
LINE
8
0
10
-5.549334
20
-5.567742
30
0.0
11
-5.571664
21
-5.607723
31
0.0
0
LINE
8
0
10
-6.008332
20
-5.620064
30
0.0
11
-6.088455
21
-5.553966
31
0.0
0
LINE
8
0
10
-6.088455
20
-5.553966
30
0.0
11
-6.135666
21
-5.515023
31
0.0
0
LINE
8
0
10
-5.571664
20
-5.607723
30
0.0
11
-5.613719
21
-5.653744
31
0.0
0
LINE
8
0
10
-5.613719
20
-5.653744
30
0.0
11
-5.638487
21
-5.680856
31
0.0
0
LINE
8
0
10
-5.896768
20
-5.688859
30
0.0
11
-5.966974
21
-5.645569
31
0.0
0
LINE
8
0
10
-5.966974
20
-5.645569
30
0.0
11
-6.008332
21
-5.620064
31
0.0
0
LINE
8
0
10
-2.652100
20
-5.956391
30
0.0
11
-2.506493
21
-5.762333
31
0.0
0
LINE
8
0
10
-2.506493
20
-5.762333
30
0.0
11
-2.420707
21
-5.648004
31
0.0
0
LINE
8
0
10
-5.713746
20
-5.718960
30
0.0
11
-5.666374
21
-5.694982
31
0.0
0
LINE
8
0
10
-5.666374
20
-5.694982
30
0.0
11
-5.638487
21
-5.680856
31
0.0
0
LINE
8
0
10
-5.799223
20
-5.721729
30
0.0
11
-5.860593
21
-5.701045
31
0.0
0
LINE
8
0
10
-5.860593
20
-5.701045
30
0.0
11
-5.896768
21
-5.688859
31
0.0
0
LINE
8
0
10
-5.713746
20
-5.718960
30
0.0
11
-5.767534
21
-5.720702
31
0.0
0
LINE
8
0
10
-5.767534
20
-5.720702
30
0.0
11
-5.799223
21
-5.721729
31
0.0
0
LINE
8
0
10
-2.910444
20
-6.241193
30
0.0
11
-2.747878
21
-6.061976
31
0.0
0
LINE
8
0
10
-2.747878
20
-6.061976
30
0.0
11
-2.652100
21
-5.956391
31
0.0
0
LINE
8
0
10
-10.085294
20
-6.032799
30
0.0
11
-9.752784
21
-6.361509
31
0.0
0
LINE
8
0
10
-9.752784
20
-6.361509
30
0.0
11
-9.556886
21
-6.555168
31
0.0
0
LINE
8
0
10
-3.196927
20
-6.500133
30
0.0
11
-3.016653
21
-6.337190
31
0.0
0
LINE
8
0
10
-3.016653
20
-6.337190
30
0.0
11
-2.910444
21
-6.241193
31
0.0
0
LINE
8
0
10
-3.519857
20
-6.734222
30
0.0
11
-3.316647
21
-6.586917
31
0.0
0
LINE
8
0
10
-3.316647
20
-6.586917
30
0.0
11
-3.196927
21
-6.500133
31
0.0
0
LINE
8
0
10
-9.556886
20
-6.555168
30
0.0
11
-9.215655
21
-6.804553
31
0.0
0
LINE
8
0
10
-9.215655
20
-6.804553
30
0.0
11
-9.014619
21
-6.951477
31
0.0
0
LINE
8
0
10
-3.888210
20
-6.944354
30
0.0
11
-3.656417
21
-6.812124
31
0.0
0
LINE
8
0
10
-3.656417
20
-6.812124
30
0.0
11
-3.519857
21
-6.734222
31
0.0
0
LINE
8
0
10
-4.300329
20
-7.126969
30
0.0
11
-4.040996
21
-7.012055
31
0.0
0
LINE
8
0
10
-4.040996
20
-7.012055
30
0.0
11
-3.888210
21
-6.944354
31
0.0
0
LINE
8
0
10
-9.014619
20
-6.951477
30
0.0
11
-8.713102
21
-7.110160
31
0.0
0
LINE
8
0
10
-8.713102
20
-7.110160
30
0.0
11
-8.535464
21
-7.203647
31
0.0
0
LINE
8
0
10
-4.746568
20
-7.277507
30
0.0
11
-4.465766
21
-7.182778
31
0.0
0
LINE
8
0
10
-4.465766
20
-7.182778
30
0.0
11
-4.300329
21
-7.126969
31
0.0
0
LINE
8
0
10
-8.535464
20
-7.203647
30
0.0
11
-8.261524
21
-7.298047
31
0.0
0
LINE
8
0
10
-8.261524
20
-7.298047
30
0.0
11
-8.100132
21
-7.353662
31
0.0
0
LINE
8
0
10
-5.217512
20
-7.394112
30
0.0
11
-4.921162
21
-7.320736
31
0.0
0
LINE
8
0
10
-4.921162
20
-7.320736
30
0.0
11
-4.746568
21
-7.277507
31
0.0
0
LINE
8
0
10
-8.100132
20
-7.353662
30
0.0
11
-7.819487
21
-7.414895
31
0.0
0
LINE
8
0
10
-7.819487
20
-7.414895
30
0.0
11
-7.654146
21
-7.450971
31
0.0
0
LINE
8
0
10
-5.704930
20
-7.476295
30
0.0
11
-5.398210
21
-7.424580
31
0.0
0
LINE
8
0
10
-5.398210
20
-7.424580
30
0.0
11
-5.217512
21
-7.394112
31
0.0
0
LINE
8
0
10
-7.654146
20
-7.450971
30
0.0
11
-7.357918
21
-7.488992
31
0.0
0
LINE
8
0
10
-7.357918
20
-7.488992
30
0.0
11
-7.183395
21
-7.511392
31
0.0
0
LINE
8
0
10
-6.200533
20
-7.523582
30
0.0
11
-5.888668
21
-7.493826
31
0.0
0
LINE
8
0
10
-5.888668
20
-7.493826
30
0.0
11
-5.704930
21
-7.476295
31
0.0
0
LINE
8
0
10
-7.183395
20
-7.511392
30
0.0
11
-6.876758
21
-7.526520
31
0.0
0
LINE
8
0
10
-6.876758
20
-7.526520
30
0.0
11
-6.696104
21
-7.535433
31
0.0
0
LINE
8
0
10
-6.696104
20
-7.535433
30
0.0
11
-6.384256
21
-7.527975
31
0.0
0
LINE
8
0
10
-6.384256
20
-7.527975
30
0.0
11
-6.200533
21
-7.523582
31
0.0
0
LINE
8
0
10
-0.674411
20
-2.128760
30
0.0
11
-0.491718
21
-2.435362
31
0.0
0
LINE
8
0
10
-0.491718
20
-2.435362
30
0.0
11
-0.384083
21
-2.615996
31
0.0
0
LINE
8
0
10
-0.050466
20
-3.139158
30
0.0
11
-0.174148
21
-2.945206
31
0.0
0
LINE
8
0
10
-0.384083
20
-2.615996
30
0.0
11
-0.289537
21
-2.764258
31
0.0
0
LINE
8
0
10
-0.289537
20
-2.764258
30
0.0
11
-0.174148
21
-2.945206
31
0.0
0
LINE
8
0
10
-0.050466
20
-3.139158
30
0.0
11
0.233116
21
-3.592928
31
0.0
0
LINE
8
0
10
0.233116
20
-3.592928
30
0.0
11
0.400188
21
-3.860265
31
0.0
0
LINE
8
0
10
0.400188
20
-3.860265
30
0.0
11
0.737911
21
-4.477305
31
0.0
0
LINE
8
0
10
0.737911
20
-4.477305
30
0.0
11
0.936880
21
-4.840833
31
0.0
0
LINE
8
0
10
0.936880
20
-4.840833
30
0.0
11
1.224552
21
-5.449194
31
0.0
0
LINE
8
0
10
1.224552
20
-5.449194
30
0.0
11
1.394033
21
-5.807609
31
0.0
0
LINE
8
0
10
27.061143
20
2.093998
30
0.0
11
26.858455
21
2.090885
31
0.0
0
LINE
8
0
10
26.858455
20
2.090885
30
0.0
11
26.739041
21
2.089051
31
0.0
0
LINE
8
0
10
27.061143
20
2.093998
30
0.0
11
27.293783
21
2.092532
31
0.0
0
LINE
8
0
10
27.293783
20
2.092532
30
0.0
11
27.430839
21
2.091668
31
0.0
0
LINE
8
0
10
27.430839
20
2.091668
30
0.0
11
27.697472
21
2.086420
31
0.0
0
LINE
8
0
10
27.697472
20
2.086420
30
0.0
11
27.854560
21
2.083328
31
0.0
0
LINE
8
0
10
26.739041
20
2.089051
30
0.0
11
26.562237
21
2.080574
31
0.0
0
LINE
8
0
10
26.562237
20
2.080574
30
0.0
11
26.458072
21
2.075579
31
0.0
0
LINE
8
0
10
28.238653
20
2.072034
30
0.0
11
27.996959
21
2.079141
31
0.0
0
LINE
8
0
10
27.996959
20
2.079141
30
0.0
11
27.854560
21
2.083328
31
0.0
0
LINE
8
0
10
26.211746
20
2.052332
30
0.0
11
26.366758
21
2.066961
31
0.0
0
LINE
8
0
10
26.366758
20
2.066961
30
0.0
11
26.458072
21
2.075579
31
0.0
0
LINE
8
0
10
28.238653
20
2.072034
30
0.0
11
28.452883
21
2.062760
31
0.0
0
LINE
8
0
10
28.452883
20
2.062760
30
0.0
11
28.579089
21
2.057296
31
0.0
0
LINE
8
0
10
28.878867
20
2.038489
30
0.0
11
28.690228
21
2.050324
31
0.0
0
LINE
8
0
10
28.690228
20
2.050324
30
0.0
11
28.579089
21
2.057296
31
0.0
0
LINE
8
0
10
26.211746
20
2.052332
30
0.0
11
26.074535
21
2.030746
31
0.0
0
LINE
8
0
10
26.074535
20
2.030746
30
0.0
11
25.993685
21
2.018028
31
0.0
0
LINE
8
0
10
28.878867
20
2.038489
30
0.0
11
29.043849
21
2.023691
31
0.0
0
LINE
8
0
10
29.043849
20
2.023691
30
0.0
11
29.141048
21
2.014972
31
0.0
0
LINE
8
0
10
25.797357
20
1.971416
30
0.0
11
25.920899
21
2.000748
31
0.0
0
LINE
8
0
10
25.920899
20
2.000748
30
0.0
11
25.993685
21
2.018028
31
0.0
0
LINE
8
0
10
29.368660
20
1.986104
30
0.0
11
29.225432
21
2.004270
31
0.0
0
LINE
8
0
10
29.225432
20
2.004270
30
0.0
11
29.141048
21
2.014972
31
0.0
0
LINE
8
0
10
29.368660
20
1.986104
30
0.0
11
29.492071
21
1.964177
31
0.0
0
LINE
8
0
10
29.492071
20
1.964177
30
0.0
11
29.564774
21
1.951258
31
0.0
0
LINE
8
0
10
25.616316
20
1.911248
30
0.0
11
25.730242
21
1.949110
31
0.0
0
LINE
8
0
10
25.730242
20
1.949110
30
0.0
11
25.797357
21
1.971416
31
0.0
0
LINE
8
0
10
29.564774
20
1.951258
30
0.0
11
29.756696
21
1.891300
31
0.0
0
LINE
8
0
10
29.756696
20
1.891300
30
0.0
11
29.869765
21
1.855975
31
0.0
0
LINE
8
0
10
25.616316
20
1.911248
30
0.0
11
25.507957
21
1.864048
31
0.0
0
LINE
8
0
10
25.507957
20
1.864048
30
0.0
11
25.444117
21
1.836241
31
0.0
0
LINE
8
0
10
25.444117
20
1.836241
30
0.0
11
25.337267
21
1.778916
31
0.0
0
LINE
8
0
10
25.337267
20
1.778916
30
0.0
11
25.274317
21
1.745144
31
0.0
0
LINE
8
0
10
25.274317
20
1.745144
30
0.0
11
25.164901
21
1.676899
31
0.0
0
LINE
8
0
10
25.164901
20
1.676899
30
0.0
11
25.100439
21
1.636693
31
0.0
0
LINE
8
0
10
25.100439
20
1.636693
30
0.0
11
24.984394
21
1.556741
31
0.0
0
LINE
8
0
10
24.984394
20
1.556741
30
0.0
11
24.916026
21
1.509638
31
0.0
0
LINE
8
0
10
24.916026
20
1.509638
30
0.0
11
24.696195
21
1.337815
31
0.0
0
LINE
8
0
10
24.696195
20
1.337815
30
0.0
11
24.566683
21
1.236585
31
0.0
0
LINE
8
0
10
24.566683
20
1.236585
30
0.0
11
24.372433
21
1.050112
31
0.0
0
LINE
8
0
10
24.372433
20
1.050112
30
0.0
11
24.257990
21
0.940252
31
0.0
0
LINE
8
0
10
24.257990
20
0.940252
30
0.0
11
24.087663
21
0.733828
31
0.0
0
LINE
8
0
10
24.087663
20
0.733828
30
0.0
11
23.987313
21
0.612214
31
0.0
0
LINE
8
0
10
29.550130
20
0.700592
30
0.0
11
29.720683
21
0.705904
31
0.0
0
LINE
8
0
10
29.720683
20
0.705904
30
0.0
11
29.821164
21
0.709033
31
0.0
0
LINE
8
0
10
29.288282
20
0.675640
30
0.0
11
29.453052
21
0.691342
31
0.0
0
LINE
8
0
10
29.453052
20
0.691342
30
0.0
11
29.550130
21
0.700592
31
0.0
0
LINE
8
0
10
29.036879
20
0.634785
30
0.0
11
29.195079
21
0.660494
31
0.0
0
LINE
8
0
10
29.195079
20
0.660494
30
0.0
11
29.288282
21
0.675640
31
0.0
0
LINE
8
0
10
28.797227
20
0.578619
30
0.0
11
28.948039
21
0.613962
31
0.0
0
LINE
8
0
10
28.948039
20
0.613962
30
0.0
11
29.036879
21
0.634785
31
0.0
0
LINE
8
0
10
23.987313
20
0.612214
30
0.0
11
23.839232
21
0.380560
31
0.0
0
LINE
8
0
10
23.839232
20
0.380560
30
0.0
11
23.751991
21
0.244081
31
0.0
0
LINE
8
0
10
28.570664
20
0.507696
30
0.0
11
28.713231
21
0.552325
31
0.0
0
LINE
8
0
10
28.713231
20
0.552325
30
0.0
11
28.797227
21
0.578619
31
0.0
0
LINE
8
0
10
28.358462
20
0.422593
30
0.0
11
28.491992
21
0.476146
31
0.0
0
LINE
8
0
10
28.491992
20
0.476146
30
0.0
11
28.570664
21
0.507696
31
0.0
0
LINE
8
0
10
28.161940
20
0.323934
30
0.0
11
28.285604
21
0.386017
31
0.0
0
LINE
8
0
10
28.285604
20
0.386017
30
0.0
11
28.358462
21
0.422593
31
0.0
0
LINE
8
0
10
27.982341
20
0.212292
30
0.0
11
28.095364
21
0.282544
31
0.0
0
LINE
8
0
10
28.095364
20
0.282544
30
0.0
11
28.161940
21
0.323934
31
0.0
0
LINE
8
0
10
23.751991
20
0.244081
30
0.0
11
23.624513
21
-0.018094
31
0.0
0
LINE
8
0
10
23.624513
20
-0.018094
30
0.0
11
23.549411
21
-0.172554
31
0.0
0
LINE
8
0
10
27.821039
20
0.088225
30
0.0
11
27.922539
21
0.166296
31
0.0
0
LINE
8
0
10
27.922539
20
0.166296
30
0.0
11
27.982341
21
0.212292
31
0.0
0
LINE
8
0
10
27.679333
20
-0.047643
30
0.0
11
27.768494
21
0.037854
31
0.0
0
LINE
8
0
10
27.768494
20
0.037854
30
0.0
11
27.821039
21
0.088225
31
0.0
0
LINE
8
0
10
27.558448
20
-0.194772
30
0.0
11
27.634519
21
-0.102188
31
0.0
0
LINE
8
0
10
27.634519
20
-0.102188
30
0.0
11
27.679333
21
-0.047643
31
0.0
0
LINE
8
0
10
23.549411
20
-0.172554
30
0.0
11
23.440868
21
-0.470563
31
0.0
0
LINE
8
0
10
23.440868
20
-0.470563
30
0.0
11
23.376919
21
-0.646134
31
0.0
0
LINE
8
0
10
27.459725
20
-0.352536
30
0.0
11
27.521852
21
-0.253260
31
0.0
0
LINE
8
0
10
27.521852
20
-0.253260
30
0.0
11
27.558448
21
-0.194772
31
0.0
0
LINE
8
0
10
27.416203
20
-0.462574
30
0.0
11
27.443590
21
-0.393330
31
0.0
0
LINE
8
0
10
27.443590
20
-0.393330
30
0.0
11
27.459725
21
-0.352536
31
0.0
0
LINE
8
0
10
27.373507
20
-0.626466
30
0.0
11
27.400374
21
-0.523334
31
0.0
0
LINE
8
0
10
27.400374
20
-0.523334
30
0.0
11
27.416203
21
-0.462574
31
0.0
0
LINE
8
0
10
27.373507
20
-0.626466
30
0.0
11
27.347385
21
-0.761075
31
0.0
0
LINE
8
0
10
27.347385
20
-0.761075
30
0.0
11
27.331997
21
-0.840380
31
0.0
0
LINE
8
0
10
23.231893
20
-1.185047
30
0.0
11
23.285659
21
-0.985255
31
0.0
0
LINE
8
0
10
23.376919
20
-0.646134
30
0.0
11
23.326029
21
-0.835240
31
0.0
0
LINE
8
0
10
23.326029
20
-0.835240
30
0.0
11
23.285659
21
-0.985255
31
0.0
0
LINE
8
0
10
27.292057
20
-1.100518
30
0.0
11
27.317190
21
-0.936822
31
0.0
0
LINE
8
0
10
27.317190
20
-0.936822
30
0.0
11
27.331997
21
-0.840380
31
0.0
0
LINE
8
0
10
27.292057
20
-1.100518
30
0.0
11
27.268135
21
-1.290900
31
0.0
0
LINE
8
0
10
27.268135
20
-1.290900
30
0.0
11
27.254040
21
-1.403064
31
0.0
0
LINE
8
0
10
23.231893
20
-1.185047
30
0.0
11
23.156244
21
-1.570582
31
0.0
0
LINE
8
0
10
23.156244
20
-1.570582
30
0.0
11
23.111675
21
-1.797719
31
0.0
0
LINE
8
0
10
27.218307
20
-1.744169
30
0.0
11
27.240794
21
-1.529522
31
0.0
0
LINE
8
0
10
27.240794
20
-1.529522
30
0.0
11
27.254040
21
-1.403064
31
0.0
0
LINE
8
0
10
27.218307
20
-1.744169
30
0.0
11
27.197501
21
-1.980699
31
0.0
0
LINE
8
0
10
27.197501
20
-1.980699
30
0.0
11
27.185243
21
-2.120050
31
0.0
0
LINE
8
0
10
23.111675
20
-1.797719
30
0.0
11
23.049983
21
-2.234958
31
0.0
0
LINE
8
0
10
23.049983
20
-2.234958
30
0.0
11
23.013639
21
-2.492556
31
0.0
0
LINE
8
0
10
27.155194
20
-2.526877
30
0.0
11
27.174103
21
-2.270874
31
0.0
0
LINE
8
0
10
27.174103
20
-2.270874
30
0.0
11
27.185243
21
-2.120050
31
0.0
0
LINE
8
0
10
23.013639
20
-2.492556
30
0.0
11
22.964239
21
-2.986790
31
0.0
0
LINE
8
0
10
22.964239
20
-2.986790
30
0.0
11
22.935136
21
-3.277966
31
0.0
0
LINE
8
0
10
27.128540
20
-2.960818
30
0.0
11
27.145311
21
-2.687753
31
0.0
0
LINE
8
0
10
27.145311
20
-2.687753
30
0.0
11
27.155194
21
-2.526877
31
0.0
0
LINE
8
0
10
27.105638
20
-3.418072
30
0.0
11
27.120051
21
-3.130336
31
0.0
0
LINE
8
0
10
27.120051
20
-3.130336
30
0.0
11
27.128540
21
-2.960818
31
0.0
0
LINE
8
0
10
22.935136
20
-3.277966
30
0.0
11
22.896382
21
-3.834485
31
0.0
0
LINE
8
0
10
22.896382
20
-3.834485
30
0.0
11
22.873549
21
-4.162357
31
0.0
0
LINE
8
0
10
27.086855
20
-3.894824
30
0.0
11
27.098675
21
-3.594819
31
0.0
0
LINE
8
0
10
27.098675
20
-3.594819
30
0.0
11
27.105638
21
-3.418072
31
0.0
0
LINE
8
0
10
27.072567
20
-4.387244
30
0.0
11
27.081558
21
-4.077380
31
0.0
0
LINE
8
0
10
27.081558
20
-4.077380
30
0.0
11
27.086855
21
-3.894824
31
0.0
0
LINE
8
0
10
22.873549
20
-4.162357
30
0.0
11
22.843761
21
-4.786451
31
0.0
0
LINE
8
0
10
22.843761
20
-4.786451
30
0.0
11
22.826212
21
-5.154134
31
0.0
0
LINE
8
0
10
27.046455
20
-5.281342
30
0.0
11
27.062887
21
-4.718715
31
0.0
0
LINE
8
0
10
27.062887
20
-4.718715
30
0.0
11
27.072567
21
-4.387244
31
0.0
0
LINE
8
0
10
22.826212
20
-5.154134
30
0.0
11
22.807265
21
-5.611951
31
0.0
0
LINE
8
0
10
22.807265
20
-5.611951
30
0.0
11
22.796103
21
-5.881672
31
0.0
0
LINE
8
0
10
27.046455
20
-5.281342
30
0.0
11
27.024895
21
-5.778444
31
0.0
0
LINE
8
0
10
27.024895
20
-5.778444
30
0.0
11
27.012193
21
-6.071310
31
0.0
0
LINE
8
0
10
22.796103
20
-5.881672
30
0.0
11
22.777056
21
-6.279562
31
0.0
0
LINE
8
0
10
22.777056
20
-6.279562
30
0.0
11
22.765834
21
-6.513978
31
0.0
0
LINE
8
0
10
27.012193
20
-6.071310
30
0.0
11
26.984296
21
-6.508358
31
0.0
0
LINE
8
0
10
26.984296
20
-6.508358
30
0.0
11
26.967860
21
-6.765844
31
0.0
0
LINE
8
0
10
22.765834
20
-6.513978
30
0.0
11
22.745953
21
-6.856966
31
0.0
0
LINE
8
0
10
22.745953
20
-6.856966
30
0.0
11
22.734239
21
-7.059036
31
0.0
0
LINE
8
0
10
26.911534
20
-7.373636
30
0.0
11
26.946978
21
-6.991172
31
0.0
0
LINE
8
0
10
26.946978
20
-6.991172
30
0.0
11
26.967860
21
-6.765844
31
0.0
0
LINE
8
0
10
22.734239
20
-7.059036
30
0.0
11
22.712742
21
-7.352179
31
0.0
0
LINE
8
0
10
22.712742
20
-7.352179
30
0.0
11
22.700077
21
-7.524884
31
0.0
0
LINE
8
0
10
26.841288
20
-7.903400
30
0.0
11
26.885491
21
-7.570037
31
0.0
0
LINE
8
0
10
26.885491
20
-7.570037
30
0.0
11
26.911534
21
-7.373636
31
0.0
0
LINE
8
0
10
22.700077
20
-7.524884
30
0.0
11
22.676210
21
-7.773217
31
0.0
0
LINE
8
0
10
22.676210
20
-7.773217
30
0.0
11
22.662149
21
-7.919523
31
0.0
0
LINE
8
0
10
26.755197
20
-8.363828
30
0.0
11
26.809371
21
-8.074095
31
0.0
0
LINE
8
0
10
26.809371
20
-8.074095
30
0.0
11
26.841288
21
-7.903400
31
0.0
0
LINE
8
0
10
22.662149
20
-7.919523
30
0.0
11
22.635148
21
-8.128082
31
0.0
0
LINE
8
0
10
22.635148
20
-8.128082
30
0.0
11
22.619242
21
-8.250954
31
0.0
0
LINE
8
0
10
22.619242
20
-8.250954
30
0.0
11
22.588357
21
-8.424806
31
0.0
0
LINE
8
0
10
22.588357
20
-8.424806
30
0.0
11
22.570160
21
-8.527230
31
0.0
0
LINE
8
0
10
26.651365
20
-8.763615
30
0.0
11
26.716703
21
-8.512042
31
0.0
0
LINE
8
0
10
26.716703
20
-8.512042
30
0.0
11
26.755197
21
-8.363828
31
0.0
0
LINE
8
0
10
22.570160
20
-8.527230
30
0.0
11
22.534609
21
-8.671411
31
0.0
0
LINE
8
0
10
22.534609
20
-8.671411
30
0.0
11
22.513665
21
-8.756355
31
0.0
0
LINE
8
0
10
26.527847
20
-9.111471
30
0.0
11
26.605572
21
-8.892576
31
0.0
0
LINE
8
0
10
26.605572
20
-8.892576
30
0.0
11
26.651365
21
-8.763615
31
0.0
0
LINE
8
0
10
26.382726
20
-9.416094
30
0.0
11
26.474047
21
-9.224405
31
0.0
0
LINE
8
0
10
26.474047
20
-9.224405
30
0.0
11
26.527847
21
-9.111471
31
0.0
0
LINE
8
0
10
26.214085
20
-9.686176
30
0.0
11
26.320207
21
-9.516222
31
0.0
0
LINE
8
0
10
26.320207
20
-9.516222
30
0.0
11
26.382726
21
-9.416094
31
0.0
0
LINE
8
0
10
22.513665
20
-8.756355
30
0.0
11
22.449106
21
-8.925863
31
0.0
0
LINE
8
0
10
22.449106
20
-8.925863
30
0.0
11
22.411072
21
-9.025728
31
0.0
0
LINE
8
0
10
26.020003
20
-9.930412
30
0.0
11
26.142131
21
-9.776722
31
0.0
0
LINE
8
0
10
26.142131
20
-9.776722
30
0.0
11
26.214085
21
-9.686176
31
0.0
0
LINE
8
0
10
22.411072
20
-9.025728
30
0.0
11
22.232058
21
-9.275899
31
0.0
0
LINE
8
0
10
22.232058
20
-9.275899
30
0.0
11
22.126594
21
-9.423286
31
0.0
0
LINE
8
0
10
25.798558
20
-10.157528
30
0.0
11
25.937906
21
-10.014611
31
0.0
0
LINE
8
0
10
25.937906
20
-10.014611
30
0.0
11
26.020003
21
-9.930412
31
0.0
0
LINE
8
0
10
21.819152
20
-9.717172
30
0.0
11
21.513946
21
-9.863849
31
0.0
0
LINE
8
0
10
21.513946
20
-9.863849
30
0.0
11
21.334132
21
-9.950263
31
0.0
0
LINE
8
0
10
25.442414
20
-10.417968
30
0.0
11
25.666524
21
-10.254082
31
0.0
0
LINE
8
0
10
25.666524
20
-10.254082
30
0.0
11
25.798558
21
-10.157528
31
0.0
0
LINE
8
0
10
21.334132
20
-9.950263
30
0.0
11
21.022847
21
-10.078351
31
0.0
0
LINE
8
0
10
21.022847
20
-10.078351
30
0.0
11
20.839452
21
-10.153814
31
0.0
0
LINE
8
0
10
24.965271
20
-10.658489
30
0.0
11
25.265522
21
-10.507137
31
0.0
0
LINE
8
0
10
25.265522
20
-10.507137
30
0.0
11
25.442414
21
-10.417968
31
0.0
0
LINE
8
0
10
20.313482
20
-10.331362
30
0.0
11
20.644458
21
-10.219636
31
0.0
0
LINE
8
0
10
20.644458
20
-10.219636
30
0.0
11
20.839452
21
-10.153814
31
0.0
0
LINE
8
0
10
24.394713
20
-10.875020
30
0.0
11
24.753747
21
-10.738764
31
0.0
0
LINE
8
0
10
24.753747
20
-10.738764
30
0.0
11
24.965271
21
-10.658489
31
0.0
0
LINE
8
0
10
23.758350
20
-11.063494
30
0.0
11
24.158791
21
-10.944893
31
0.0
0
LINE
8
0
10
24.158791
20
-10.944893
30
0.0
11
24.394713
21
-10.875020
31
0.0
0
LINE
8
0
10
23.083791
20
-11.219822
30
0.0
11
23.508269
21
-11.121450
31
0.0
0
LINE
8
0
10
23.508269
20
-11.121450
30
0.0
11
23.758350
21
-11.063494
31
0.0
0
LINE
8
0
10
22.398619
20
-11.335010
30
0.0
11
22.829778
21
-11.262526
31
0.0
0
LINE
8
0
10
22.829778
20
-11.262526
30
0.0
11
23.083791
21
-11.219822
31
0.0
0
LINE
8
0
10
21.730465
20
-11.414828
30
0.0
11
22.150913
21
-11.364601
31
0.0
0
LINE
8
0
10
22.150913
20
-11.364601
30
0.0
11
22.398619
21
-11.335010
31
0.0
0
LINE
8
0
10
20.831270
20
-11.414828
30
0.0
11
21.397104
21
-11.414828
31
0.0
0
LINE
8
0
10
21.397104
20
-11.414828
30
0.0
11
21.730465
21
-11.414828
31
0.0
0
LINE
8
0
10
-2.011063
20
-2.045007
30
0.0
11
-1.925850
21
-2.273108
31
0.0
0
LINE
8
0
10
-1.781211
20
-2.660279
30
0.0
11
-1.785833
21
-2.647905
31
0.0
0
LINE
8
0
10
-1.785833
20
-2.647905
30
0.0
11
-1.925850
21
-2.273108
31
0.0
0
LINE
8
0
10
-11.914651
20
5.389725
30
0.0
11
-11.924368
21
4.916664
31
0.0
0
LINE
8
0
10
-11.924368
20
4.916664
30
0.0
11
-11.930094
21
4.637961
31
0.0
0
LINE
8
0
10
-7.015432
20
-1.262044
30
0.0
11
-6.893601
21
-1.248489
31
0.0
0
LINE
8
0
10
-6.893601
20
-1.248489
30
0.0
11
-6.821812
21
-1.240503
31
0.0
0
LINE
8
0
10
-7.121372
20
-1.362730
30
0.0
11
-7.054706
21
-1.299371
31
0.0
0
LINE
8
0
10
-7.054706
20
-1.299371
30
0.0
11
-7.015432
21
-1.262044
31
0.0
0
LINE
8
0
10
1.394033
20
-5.807609
30
0.0
11
1.560331
21
-6.221136
31
0.0
0
LINE
8
0
10
1.560331
20
-6.221136
30
0.0
11
1.658306
21
-6.464765
31
0.0
0
LINE
8
0
10
22.126594
20
-9.423286
30
0.0
11
21.933130
21
-9.608219
31
0.0
0
LINE
8
0
10
21.933130
20
-9.608219
30
0.0
11
21.819152
21
-9.717172
31
0.0
0
LINE
8
0
10
-4.936835
20
8.662523
30
0.0
11
-5.037144
21
8.633278
31
0.0
0
LINE
8
0
10
-5.037144
20
8.633278
30
0.0
11
-5.096232
21
8.616048
31
0.0
0
LINE
8
0
10
-5.096232
20
8.616048
30
0.0
11
-5.169627
21
8.542629
31
0.0
0
LINE
8
0
10
-5.169627
20
8.542629
30
0.0
11
-5.212879
21
8.499374
31
0.0
0
LINE
8
0
10
-5.212879
20
8.499374
30
0.0
11
-5.239753
21
8.399078
31
0.0
0
LINE
8
0
10
-5.239753
20
8.399078
30
0.0
11
-5.255585
21
8.339989
31
0.0
0
LINE
8
0
10
-2.323618
20
8.616047
30
0.0
11
-2.423908
21
8.645292
31
0.0
0
LINE
8
0
10
-2.423908
20
8.645292
30
0.0
11
-2.482994
21
8.662522
31
0.0
0
LINE
8
0
10
-2.206945
20
8.499373
30
0.0
11
-2.280364
21
8.572792
31
0.0
0
LINE
8
0
10
-2.280364
20
8.572792
30
0.0
11
-2.323618
21
8.616047
31
0.0
0
LINE
8
0
10
-2.206945
20
8.499373
30
0.0
11
-2.191114
21
8.440284
31
0.0
0
LINE
8
0
10
-2.164241
20
8.339988
30
0.0
11
-2.174586
21
8.378596
31
0.0
0
LINE
8
0
10
-2.174586
20
8.378596
30
0.0
11
-2.191114
21
8.440284
31
0.0
0
LINE
8
0
10
-2.206946
20
2.240824
30
0.0
11
-2.180073
21
2.341120
31
0.0
0
LINE
8
0
10
-2.180073
20
2.341120
30
0.0
11
-2.164241
21
2.400209
31
0.0
0
LINE
8
0
10
-2.323612
20
2.124168
30
0.0
11
-2.250199
21
2.197576
31
0.0
0
LINE
8
0
10
-2.250199
20
2.197576
30
0.0
11
-2.206946
21
2.240824
31
0.0
0
LINE
8
0
10
-2.482993
20
2.081440
30
0.0
11
-2.382699
21
2.108328
31
0.0
0
LINE
8
0
10
-2.382699
20
2.108328
30
0.0
11
-2.323612
21
2.124168
31
0.0
0
LINE
8
0
10
-5.255582
20
2.400209
30
0.0
11
-5.228711
21
2.299914
31
0.0
0
LINE
8
0
10
-5.228711
20
2.299914
30
0.0
11
-5.212879
21
2.240825
31
0.0
0
LINE
8
0
10
-5.212879
20
2.240825
30
0.0
11
-5.139461
21
2.167417
31
0.0
0
LINE
8
0
10
-5.139461
20
2.167417
30
0.0
11
-5.096206
21
2.124169
31
0.0
0
LINE
8
0
10
-5.096206
20
2.124169
30
0.0
11
-4.995916
21
2.097281
31
0.0
0
LINE
8
0
10
-4.995916
20
2.097281
30
0.0
11
-4.936830
21
2.081440
31
0.0
0
LINE
8
0
10
-2.482994
20
8.662522
30
0.0
11
-4.027119
21
8.662523
31
0.0
0
LINE
8
0
10
-4.027119
20
8.662523
30
0.0
11
-4.936835
21
8.662523
31
0.0
0
LINE
8
0
10
-5.255582
20
2.400209
30
0.0
11
-5.255582
21
4.018999
31
0.0
0
LINE
8
0
10
-5.255585
20
8.339989
30
0.0
11
-5.255585
21
6.137924
31
0.0
0
LINE
8
0
10
-5.255582
20
4.018999
30
0.0
11
-5.255585
21
6.137924
31
0.0
0
LINE
8
0
10
-2.164241
20
2.400209
30
0.0
11
-2.164242
21
6.137923
31
0.0
0
LINE
8
0
10
-2.164242
20
6.137923
30
0.0
11
-2.164241
21
8.339988
31
0.0
0
LINE
8
0
10
-4.936830
20
2.081440
30
0.0
11
-3.392708
21
2.081440
31
0.0
0
LINE
8
0
10
-3.392708
20
2.081440
30
0.0
11
-2.482993
21
2.081440
31
0.0
0
LINE
8
0
10
-9.349994
20
2.081440
30
0.0
11
-9.224880
21
2.111802
31
0.0
0
LINE
8
0
10
-9.224880
20
2.111802
30
0.0
11
-9.151169
21
2.129689
31
0.0
0
LINE
8
0
10
-9.151169
20
2.129689
30
0.0
11
-9.043664
21
2.212680
31
0.0
0
LINE
8
0
10
-9.043664
20
2.212680
30
0.0
11
-8.980336
21
2.261573
31
0.0
0
LINE
8
0
10
-8.980336
20
2.261573
30
0.0
11
-8.919293
21
2.374936
31
0.0
0
LINE
8
0
10
-8.919293
20
2.374936
30
0.0
11
-8.883322
21
2.441723
31
0.0
0
LINE
8
0
10
-11.924165
20
2.446248
30
0.0
11
-11.869235
21
2.331472
31
0.0
0
LINE
8
0
10
-11.869235
20
2.331472
30
0.0
11
-11.836878
21
2.263852
31
0.0
0
LINE
8
0
10
-11.836878
20
2.263852
30
0.0
11
-11.733881
21
2.179821
31
0.0
0
LINE
8
0
10
-11.733881
20
2.179821
30
0.0
11
-11.673200
21
2.130314
31
0.0
0
LINE
8
0
10
-11.673200
20
2.130314
30
0.0
11
-11.549725
21
2.099560
31
0.0
0
LINE
8
0
10
-11.549725
20
2.099560
30
0.0
11
-11.476980
21
2.081440
31
0.0
0
LINE
8
0
10
-11.476980
20
2.081440
30
0.0
11
-10.138535
21
2.081440
31
0.0
0
LINE
8
0
10
-10.138535
20
2.081440
30
0.0
11
-9.349994
21
2.081440
31
0.0
0
LINE
8
0
10
-11.924132
20
2.818736
30
0.0
11
-11.924161
21
2.584341
31
0.0
0
LINE
8
0
10
-11.924161
20
2.584341
30
0.0
11
-11.924165
21
2.446248
31
0.0
0
LINE
8
0
10
-11.829153
20
8.487067
30
0.0
11
-11.861102
21
8.376657
31
0.0
0
LINE
8
0
10
-11.861102
20
8.376657
30
0.0
11
-11.879919
21
8.311610
31
0.0
0
LINE
8
0
10
-11.697940
20
8.615524
30
0.0
11
-11.780508
21
8.534690
31
0.0
0
LINE
8
0
10
-11.780508
20
8.534690
30
0.0
11
-11.829153
21
8.487067
31
0.0
0
LINE
8
0
10
-11.521441
20
8.662523
30
0.0
11
-11.632505
21
8.632948
31
0.0
0
LINE
8
0
10
-11.632505
20
8.632948
30
0.0
11
-11.697940
21
8.615524
31
0.0
0
LINE
8
0
10
-11.879919
20
8.311610
30
0.0
11
-11.879908
21
7.464551
31
0.0
0
LINE
8
0
10
-11.879908
20
7.464551
30
0.0
11
-11.879906
21
6.965509
31
0.0
0
LINE
8
0
10
-8.883322
20
2.441723
30
0.0
11
-8.883325
21
3.181602
31
0.0
0
LINE
8
0
10
-8.883325
20
3.181602
30
0.0
11
-8.883326
21
3.617500
31
0.0
0
LINE
8
0
10
6.846189
20
8.530099
30
0.0
11
6.823860
21
8.446758
31
0.0
0
LINE
8
0
10
6.823860
20
8.446758
30
0.0
11
6.810705
21
8.397658
31
0.0
0
LINE
8
0
10
6.846189
20
8.530099
30
0.0
11
6.907202
21
8.591099
31
0.0
0
LINE
8
0
10
6.907202
20
8.591099
30
0.0
11
6.943144
21
8.627037
31
0.0
0
LINE
8
0
10
6.943144
20
8.627037
30
0.0
11
7.026475
21
8.649367
31
0.0
0
LINE
8
0
10
7.026475
20
8.649367
30
0.0
11
7.075572
21
8.662522
31
0.0
0
LINE
8
0
10
6.943135
20
2.116925
30
0.0
11
7.026470
21
2.094595
31
0.0
0
LINE
8
0
10
7.026470
20
2.094595
30
0.0
11
7.075567
21
2.081439
31
0.0
0
LINE
8
0
10
6.846188
20
2.213863
30
0.0
11
6.907194
21
2.152863
31
0.0
0
LINE
8
0
10
6.907194
20
2.152863
30
0.0
11
6.943135
21
2.116925
31
0.0
0
LINE
8
0
10
6.810702
20
2.346303
30
0.0
11
6.833033
21
2.262963
31
0.0
0
LINE
8
0
10
6.833033
20
2.262963
30
0.0
11
6.846188
21
2.213863
31
0.0
0
LINE
8
0
10
6.810702
20
2.346303
30
0.0
11
6.810703
21
4.589733
31
0.0
0
LINE
8
0
10
6.810705
20
8.397658
30
0.0
11
6.810705
21
8.269314
31
0.0
0
LINE
8
0
10
6.810705
20
8.269314
30
0.0
11
6.810703
21
4.589733
31
0.0
0
LINE
8
0
10
-14.390623
20
-7.790421
30
0.0
11
-14.340745
21
-7.780871
31
0.0
0
LINE
8
0
10
-14.340745
20
-7.780871
30
0.0
11
-14.311388
21
-7.775244
31
0.0
0
LINE
8
0
10
-14.473987
20
-7.772070
30
0.0
11
-14.421570
21
-7.783618
31
0.0
0
LINE
8
0
10
-14.421570
20
-7.783618
30
0.0
11
-14.390623
21
-7.790421
31
0.0
0
LINE
8
0
10
-14.539575
20
-7.725086
30
0.0
11
-14.498279
21
-7.754652
31
0.0
0
LINE
8
0
10
-14.498279
20
-7.754652
30
0.0
11
-14.473987
21
-7.772070
31
0.0
0
LINE
8
0
10
-14.311388
20
-7.775244
30
0.0
11
-14.090651
21
-7.675777
31
0.0
0
LINE
8
0
10
-14.090651
20
-7.675777
30
0.0
11
-13.960610
21
-7.617176
31
0.0
0
LINE
8
0
10
-11.839583
20
-6.199697
30
0.0
11
-11.837135
21
-6.174372
31
0.0
0
LINE
8
0
10
-11.831763
20
-6.128707
30
0.0
11
-11.834067
21
-6.148054
31
0.0
0
LINE
8
0
10
-11.837135
20
-6.174372
30
0.0
11
-11.834067
21
-6.148054
31
0.0
0
LINE
8
0
10
-11.871127
20
-6.272712
30
0.0
11
-11.859530
21
-6.246665
31
0.0
0
LINE
8
0
10
-11.839583
20
-6.199697
30
0.0
11
-11.848006
21
-6.219595
31
0.0
0
LINE
8
0
10
-11.859530
20
-6.246665
30
0.0
11
-11.848006
21
-6.219595
31
0.0
0
LINE
8
0
10
-11.916242
20
-6.328204
30
0.0
11
-11.887844
21
-6.293285
31
0.0
0
LINE
8
0
10
-11.887844
20
-6.293285
30
0.0
11
-11.871127
21
-6.272712
31
0.0
0
LINE
8
0
10
-11.831763
20
-6.128707
30
0.0
11
-11.836972
21
-6.048500
31
0.0
0
LINE
8
0
10
-11.836972
20
-6.048500
30
0.0
11
-11.840026
21
-6.001247
31
0.0
0
LINE
8
0
10
-12.048351
20
-6.440724
30
0.0
11
-11.965222
21
-6.369919
31
0.0
0
LINE
8
0
10
-11.965222
20
-6.369919
30
0.0
11
-11.916242
21
-6.328204
31
0.0
0
LINE
8
0
10
-17.205686
20
-7.377449
30
0.0
11
-17.171965
21
-7.252411
31
0.0
0
LINE
8
0
10
-17.171965
20
-7.252411
30
0.0
11
-17.152136
21
-7.178746
31
0.0
0
LINE
8
0
10
-17.351186
20
-7.522906
30
0.0
11
-17.259661
21
-7.431374
31
0.0
0
LINE
8
0
10
-17.259661
20
-7.431374
30
0.0
11
-17.205686
21
-7.377449
31
0.0
0
LINE
8
0
10
-17.549974
20
-7.576152
30
0.0
11
-17.424878
21
-7.542646
31
0.0
0
LINE
8
0
10
-17.424878
20
-7.542646
30
0.0
11
-17.351186
21
-7.522906
31
0.0
0
LINE
8
0
10
-20.442647
20
-7.178746
30
0.0
11
-20.409060
21
-7.303783
31
0.0
0
LINE
8
0
10
-20.409060
20
-7.303783
30
0.0
11
-20.389313
21
-7.377449
31
0.0
0
LINE
8
0
10
-20.389313
20
-7.377449
30
0.0
11
-20.297893
21
-7.468980
31
0.0
0
LINE
8
0
10
-20.297893
20
-7.468980
30
0.0
11
-20.243978
21
-7.522906
31
0.0
0
LINE
8
0
10
-20.243978
20
-7.522906
30
0.0
11
-20.118917
21
-7.556412
31
0.0
0
LINE
8
0
10
-20.118917
20
-7.556412
30
0.0
11
-20.045248
21
-7.576152
31
0.0
0
LINE
8
0
10
-20.389396
20
-0.094404
30
0.0
11
-20.422906
21
-0.219441
31
0.0
0
LINE
8
0
10
-20.422906
20
-0.219441
30
0.0
11
-20.442648
21
-0.293107
31
0.0
0
LINE
8
0
10
-20.243938
20
0.051054
30
0.0
11
-20.335470
21
-0.040478
31
0.0
0
LINE
8
0
10
-20.335470
20
-0.040478
30
0.0
11
-20.389396
21
-0.094404
31
0.0
0
LINE
8
0
10
-20.045234
20
0.104300
30
0.0
11
-20.170272
21
0.070794
31
0.0
0
LINE
8
0
10
-20.170272
20
0.070794
30
0.0
11
-20.243938
21
0.051054
31
0.0
0
LINE
8
0
10
-20.045248
20
-7.576152
30
0.0
11
-18.475047
21
-7.576152
31
0.0
0
LINE
8
0
10
-18.475047
20
-7.576152
30
0.0
11
-17.549974
21
-7.576152
31
0.0
0
LINE
8
0
10
-20.442647
20
-7.178746
30
0.0
11
-20.442645
21
-4.626020
31
0.0
0
LINE
8
0
10
-20.442648
20
-0.293107
30
0.0
11
-20.442648
21
-0.572892
31
0.0
0
LINE
8
0
10
-20.442648
20
-0.572892
30
0.0
11
-20.442645
21
-4.626020
31
0.0
0
LINE
8
0
10
-13.691420
20
0.104300
30
0.0
11
-17.689673
21
0.104300
31
0.0
0
LINE
8
0
10
-17.689673
20
0.104300
30
0.0
11
-20.045234
21
0.104300
31
0.0
0
LINE
8
0
10
1.327535
20
2.333389
30
0.0
11
1.391563
21
2.254117
31
0.0
0
LINE
8
0
10
1.391563
20
2.254117
30
0.0
11
1.429284
21
2.207414
31
0.0
0
LINE
8
0
10
1.429284
20
2.207414
30
0.0
11
1.523790
21
2.149379
31
0.0
0
LINE
8
0
10
1.523790
20
2.149379
30
0.0
11
1.579468
21
2.115187
31
0.0
0
LINE
8
0
10
1.579468
20
2.115187
30
0.0
11
1.679131
21
2.093951
31
0.0
0
LINE
8
0
10
1.679131
20
2.093951
30
0.0
11
1.737847
21
2.081440
31
0.0
0
LINE
8
0
10
3.496454
20
2.210166
30
0.0
11
3.556931
21
2.291159
31
0.0
0
LINE
8
0
10
3.556931
20
2.291159
30
0.0
11
3.592539
21
2.338876
31
0.0
0
LINE
8
0
10
3.350508
20
2.115930
30
0.0
11
3.442334
21
2.175229
31
0.0
0
LINE
8
0
10
3.442334
20
2.175229
30
0.0
11
3.496454
21
2.210166
31
0.0
0
LINE
8
0
10
3.193667
20
2.081439
30
0.0
11
3.292361
21
2.103143
31
0.0
0
LINE
8
0
10
3.292361
20
2.103143
30
0.0
11
3.350508
21
2.115930
31
0.0
0
LINE
8
0
10
1.737847
20
2.081440
30
0.0
11
2.653949
21
2.081439
31
0.0
0
LINE
8
0
10
2.653949
20
2.081439
30
0.0
11
3.193667
21
2.081439
31
0.0
0
LINE
8
0
10
10.116799
20
4.986223
30
0.0
11
10.204998
21
4.992097
31
0.0
0
LINE
8
0
10
10.204998
20
4.992097
30
0.0
11
10.256959
21
4.995559
31
0.0
0
LINE
8
0
10
10.014198
20
4.902673
30
0.0
11
10.078761
21
4.955248
31
0.0
0
LINE
8
0
10
10.078761
20
4.955248
30
0.0
11
10.116799
21
4.986223
31
0.0
0
LINE
8
0
10
9.976650
20
4.767328
30
0.0
11
10.000278
21
4.852496
31
0.0
0
LINE
8
0
10
10.000278
20
4.852496
30
0.0
11
10.014198
21
4.902673
31
0.0
0
LINE
8
0
10
10.119958
20
7.902267
30
0.0
11
10.210024
21
7.926393
31
0.0
0
LINE
8
0
10
10.210024
20
7.926393
30
0.0
11
10.263086
21
7.940606
31
0.0
0
LINE
8
0
10
10.015178
20
7.797479
30
0.0
11
10.081113
21
7.863419
31
0.0
0
LINE
8
0
10
10.081113
20
7.863419
30
0.0
11
10.119958
21
7.902267
31
0.0
0
LINE
8
0
10
9.976823
20
7.654351
30
0.0
11
10.000959
21
7.744417
31
0.0
0
LINE
8
0
10
10.000959
20
7.744417
30
0.0
11
10.015178
21
7.797479
31
0.0
0
LINE
8
0
10
10.014980
20
5.785510
30
0.0
11
9.990871
21
5.875576
31
0.0
0
LINE
8
0
10
9.990871
20
5.875576
30
0.0
11
9.976660
21
5.928637
31
0.0
0
LINE
8
0
10
10.119758
20
5.680739
30
0.0
11
10.053822
21
5.746668
31
0.0
0
LINE
8
0
10
10.053822
20
5.746668
30
0.0
11
10.014980
21
5.785510
31
0.0
0
LINE
8
0
10
10.262883
20
5.642400
30
0.0
11
10.172817
21
5.666525
31
0.0
0
LINE
8
0
10
10.172817
20
5.666525
30
0.0
11
10.119758
21
5.680739
31
0.0
0
LINE
8
0
10
10.015013
20
2.948322
30
0.0
11
9.990879
21
3.038388
31
0.0
0
LINE
8
0
10
9.990879
20
3.038388
30
0.0
11
9.976662
21
3.091450
31
0.0
0
LINE
8
0
10
10.119776
20
2.843552
30
0.0
11
10.053853
21
2.909480
31
0.0
0
LINE
8
0
10
10.053853
20
2.909480
30
0.0
11
10.015013
21
2.948322
31
0.0
0
LINE
8
0
10
10.262906
20
2.805212
30
0.0
11
10.172838
21
2.829338
31
0.0
0
LINE
8
0
10
10.172838
20
2.829338
30
0.0
11
10.119776
21
2.843552
31
0.0
0
LINE
8
0
10
9.976662
20
3.091450
30
0.0
11
9.976654
21
4.146026
31
0.0
0
LINE
8
0
10
9.976654
20
4.146026
30
0.0
11
9.976650
21
4.767328
31
0.0
0
LINE
8
0
10
9.976660
20
5.928637
30
0.0
11
9.976763
21
7.014574
31
0.0
0
LINE
8
0
10
9.976763
20
7.014574
30
0.0
11
9.976823
21
7.654351
31
0.0
0
LINE
8
0
10
12.418120
20
8.437550
30
0.0
11
12.441877
21
8.508323
31
0.0
0
LINE
8
0
10
12.441877
20
8.508323
30
0.0
11
12.455879
21
8.550019
31
0.0
0
LINE
8
0
10
12.455879
20
8.550019
30
0.0
11
12.427971
21
8.601840
31
0.0
0
LINE
8
0
10
12.427971
20
8.601840
30
0.0
11
12.411496
21
8.632370
31
0.0
0
LINE
8
0
10
12.296682
20
8.662521
30
0.0
11
12.368944
21
8.643548
31
0.0
0
LINE
8
0
10
12.368944
20
8.643548
30
0.0
11
12.411496
21
8.632370
31
0.0
0
LINE
8
0
10
12.129741
20
8.053092
30
0.0
11
12.198884
21
8.123876
31
0.0
0
LINE
8
0
10
12.198884
20
8.123876
30
0.0
11
12.239619
21
8.165578
31
0.0
0
LINE
8
0
10
11.977202
20
7.970740
30
0.0
11
12.073190
21
8.022561
31
0.0
0
LINE
8
0
10
12.073190
20
8.022561
30
0.0
11
12.129741
21
8.053092
31
0.0
0
LINE
8
0
10
11.822873
20
7.940606
30
0.0
11
11.919987
21
7.959568
31
0.0
0
LINE
8
0
10
11.919987
20
7.959568
30
0.0
11
11.977202
21
7.970740
31
0.0
0
LINE
8
0
10
12.239330
20
2.580071
30
0.0
11
12.170271
21
2.650919
31
0.0
0
LINE
8
0
10
12.170271
20
2.650919
30
0.0
11
12.129587
21
2.692658
31
0.0
0
LINE
8
0
10
12.129587
20
2.692658
30
0.0
11
12.033693
21
2.744511
31
0.0
0
LINE
8
0
10
12.033693
20
2.744511
30
0.0
11
11.977182
21
2.775060
31
0.0
0
LINE
8
0
10
11.822876
20
2.805212
30
0.0
11
11.919977
21
2.786239
31
0.0
0
LINE
8
0
10
11.919977
20
2.786239
30
0.0
11
11.977182
21
2.775060
31
0.0
0
LINE
8
0
10
12.456014
20
2.194009
30
0.0
11
12.432338
21
2.264846
31
0.0
0
LINE
8
0
10
12.432338
20
2.264846
30
0.0
11
12.418385
21
2.306580
31
0.0
0
LINE
8
0
10
12.411509
20
2.111607
30
0.0
11
12.439502
21
2.163460
31
0.0
0
LINE
8
0
10
12.439502
20
2.163460
30
0.0
11
12.456014
21
2.194009
31
0.0
0
LINE
8
0
10
12.296677
20
2.081439
30
0.0
11
12.368945
21
2.100423
31
0.0
0
LINE
8
0
10
12.368945
20
2.100423
30
0.0
11
12.411509
21
2.111607
31
0.0
0
LINE
8
0
10
12.239619
20
8.165578
30
0.0
11
12.351948
21
8.336721
31
0.0
0
LINE
8
0
10
12.351948
20
8.336721
30
0.0
11
12.418120
21
8.437550
31
0.0
0
LINE
8
0
10
7.075572
20
8.662522
30
0.0
11
10.361056
21
8.662521
31
0.0
0
LINE
8
0
10
10.361056
20
8.662521
30
0.0
11
12.296682
21
8.662521
31
0.0
0
LINE
8
0
10
10.263086
20
7.940606
30
0.0
11
11.244610
21
7.940606
31
0.0
0
LINE
8
0
10
11.244610
20
7.940606
30
0.0
11
11.822873
21
7.940606
31
0.0
0
LINE
8
0
10
12.418385
20
2.306580
30
0.0
11
12.305703
21
2.478679
31
0.0
0
LINE
8
0
10
12.305703
20
2.478679
30
0.0
11
12.239330
21
2.580071
31
0.0
0
LINE
8
0
10
10.262906
20
2.805212
30
0.0
11
11.244547
21
2.805212
31
0.0
0
LINE
8
0
10
11.244547
20
2.805212
30
0.0
11
11.822876
21
2.805212
31
0.0
0
LINE
8
0
10
7.075567
20
2.081439
30
0.0
11
10.361049
21
2.081439
31
0.0
0
LINE
8
0
10
10.361049
20
2.081439
30
0.0
11
12.296677
21
2.081439
31
0.0
0
LINE
8
0
10
12.331619
20
5.464106
30
0.0
11
12.282155
21
5.520198
31
0.0
0
LINE
8
0
10
12.282155
20
5.520198
30
0.0
11
12.252992
21
5.553244
31
0.0
0
LINE
8
0
10
12.140322
20
5.618494
30
0.0
11
12.211221
21
5.577434
31
0.0
0
LINE
8
0
10
12.211221
20
5.577434
30
0.0
11
12.252992
21
5.553244
31
0.0
0
LINE
8
0
10
12.023836
20
5.642399
30
0.0
11
12.097138
21
5.627356
31
0.0
0
LINE
8
0
10
12.097138
20
5.627356
30
0.0
11
12.140322
21
5.618494
31
0.0
0
LINE
8
0
10
12.327868
20
5.060521
30
0.0
11
12.378732
21
5.100922
31
0.0
0
LINE
8
0
10
12.378732
20
5.100922
30
0.0
11
12.408701
21
5.124724
31
0.0
0
LINE
8
0
10
12.408701
20
5.124724
30
0.0
11
12.428689
21
5.184364
31
0.0
0
LINE
8
0
10
12.428689
20
5.184364
30
0.0
11
12.440464
21
5.219500
31
0.0
0
LINE
8
0
10
12.440464
20
5.219500
30
0.0
11
12.424244
21
5.282391
31
0.0
0
LINE
8
0
10
12.424244
20
5.282391
30
0.0
11
12.414677
21
5.319443
31
0.0
0
LINE
8
0
10
11.616224
20
4.774131
30
0.0
11
11.692654
21
4.795983
31
0.0
0
LINE
8
0
10
11.692654
20
4.795983
30
0.0
11
11.737697
21
4.808858
31
0.0
0
LINE
8
0
10
11.473356
20
4.759866
30
0.0
11
11.563257
21
4.768842
31
0.0
0
LINE
8
0
10
11.563257
20
4.768842
30
0.0
11
11.616224
21
4.774131
31
0.0
0
LINE
8
0
10
11.347402
20
4.769893
30
0.0
11
11.426658
21
4.763583
31
0.0
0
LINE
8
0
10
11.426658
20
4.763583
30
0.0
11
11.473356
21
4.759866
31
0.0
0
LINE
8
0
10
12.414677
20
5.319443
30
0.0
11
12.362392
21
5.410475
31
0.0
0
LINE
8
0
10
12.362392
20
5.410475
30
0.0
11
12.331619
21
5.464106
31
0.0
0
LINE
8
0
10
12.023836
20
5.642399
30
0.0
11
10.915723
21
5.642399
31
0.0
0
LINE
8
0
10
10.915723
20
5.642399
30
0.0
11
10.262883
21
5.642400
31
0.0
0
LINE
8
0
10
11.737697
20
4.808858
30
0.0
11
12.109092
21
4.967221
31
0.0
0
LINE
8
0
10
12.109092
20
4.967221
30
0.0
11
12.327868
21
5.060521
31
0.0
0
LINE
8
0
10
10.256959
20
4.995559
30
0.0
11
10.943136
21
4.853555
31
0.0
0
LINE
8
0
10
10.943136
20
4.853555
30
0.0
11
11.347402
21
4.769893
31
0.0
0
LINE
8
0
10
-0.945917
20
7.386060
30
0.0
11
-1.009474
21
7.331923
31
0.0
0
LINE
8
0
10
-1.009474
20
7.331923
30
0.0
11
-1.046919
21
7.300029
31
0.0
0
LINE
8
0
10
-1.046919
20
7.300029
30
0.0
11
-1.073794
21
7.221575
31
0.0
0
LINE
8
0
10
-1.073794
20
7.221575
30
0.0
11
-1.089611
21
7.175354
31
0.0
0
LINE
8
0
10
-1.089611
20
7.175354
30
0.0
11
-1.072522
21
7.093617
31
0.0
0
LINE
8
0
10
-1.072522
20
7.093617
30
0.0
11
-1.062467
21
7.045462
31
0.0
0
LINE
8
0
10
1.815997
20
8.654959
30
0.0
11
1.732810
21
8.639662
31
0.0
0
LINE
8
0
10
1.732810
20
8.639662
30
0.0
11
1.683801
21
8.630650
31
0.0
0
LINE
8
0
10
1.943888
20
8.610999
30
0.0
11
1.863410
21
8.638662
31
0.0
0
LINE
8
0
10
1.863410
20
8.638662
30
0.0
11
1.815997
21
8.654959
31
0.0
0
LINE
8
0
10
2.033203
20
8.510549
30
0.0
11
1.977000
21
8.573759
31
0.0
0
LINE
8
0
10
1.977000
20
8.573759
30
0.0
11
1.943888
21
8.610999
31
0.0
0
LINE
8
0
10
3.726276
20
5.212005
30
0.0
11
3.679548
21
5.265314
31
0.0
0
LINE
8
0
10
3.679548
20
5.265314
30
0.0
11
3.652019
21
5.296720
31
0.0
0
LINE
8
0
10
3.726276
20
5.212005
30
0.0
11
3.780909
21
5.211442
31
0.0
0
LINE
8
0
10
3.780909
20
5.211442
30
0.0
11
3.813077
21
5.211111
31
0.0
0
LINE
8
0
10
3.889065
20
5.294222
30
0.0
11
3.841259
21
5.241923
31
0.0
0
LINE
8
0
10
3.841259
20
5.241923
30
0.0
11
3.813077
21
5.211111
31
0.0
0
LINE
8
0
10
5.513704
20
8.284193
30
0.0
11
5.455118
21
8.219666
31
0.0
0
LINE
8
0
10
5.455118
20
8.219666
30
0.0
11
5.420604
21
8.181650
31
0.0
0
LINE
8
0
10
5.513704
20
8.284193
30
0.0
11
5.597657
21
8.316998
31
0.0
0
LINE
8
0
10
5.597657
20
8.316998
30
0.0
11
5.647113
21
8.336325
31
0.0
0
LINE
8
0
10
5.647113
20
8.336325
30
0.0
11
5.733910
21
8.328613
31
0.0
0
LINE
8
0
10
5.733910
20
8.328613
30
0.0
11
5.785050
21
8.324069
31
0.0
0
LINE
8
0
10
6.091584
20
8.179810
30
0.0
11
6.023989
21
8.226564
31
0.0
0
LINE
8
0
10
6.023989
20
8.226564
30
0.0
11
5.984139
21
8.254109
31
0.0
0
LINE
8
0
10
6.091584
20
8.179810
30
0.0
11
6.110202
21
8.136281
31
0.0
0
LINE
8
0
10
6.141830
20
8.062395
30
0.0
11
6.123885
21
8.104281
31
0.0
0
LINE
8
0
10
6.123885
20
8.104281
30
0.0
11
6.110202
21
8.136281
31
0.0
0
LINE
8
0
10
6.121291
20
7.933330
30
0.0
11
6.134216
21
8.014546
31
0.0
0
LINE
8
0
10
6.134216
20
8.014546
30
0.0
11
6.141830
21
8.062395
31
0.0
0
LINE
8
0
10
1.683801
20
8.630650
30
0.0
11
0.477094
21
8.059542
31
0.0
0
LINE
8
0
10
-0.945917
20
7.386060
30
0.0
11
-0.870744
21
7.421638
31
0.0
0
LINE
8
0
10
0.477094
20
8.059542
30
0.0
11
0.104175
21
7.883047
31
0.0
0
LINE
8
0
10
-0.870744
20
7.421638
30
0.0
11
0.104175
21
7.883047
31
0.0
0
LINE
8
0
10
1.327535
20
2.333389
30
0.0
11
0.441487
21
4.080305
31
0.0
0
LINE
8
0
10
-1.062467
20
7.045462
30
0.0
11
-0.541033
21
6.017420
31
0.0
0
LINE
8
0
10
-0.541033
20
6.017420
30
0.0
11
0.441487
21
4.080305
31
0.0
0
LINE
8
0
10
3.652019
20
5.296720
30
0.0
11
2.633348
21
7.319081
31
0.0
0
LINE
8
0
10
2.633348
20
7.319081
30
0.0
11
2.033203
21
8.510549
31
0.0
0
LINE
8
0
10
5.420604
20
8.181650
30
0.0
11
4.456859
21
6.364683
31
0.0
0
LINE
8
0
10
4.456859
20
6.364683
30
0.0
11
3.889065
21
5.294222
31
0.0
0
LINE
8
0
10
5.785050
20
8.324069
30
0.0
11
5.910335
21
8.280045
31
0.0
0
LINE
8
0
10
5.910335
20
8.280045
30
0.0
11
5.984139
21
8.254109
31
0.0
0
LINE
8
0
10
3.592539
20
2.338876
30
0.0
11
5.183803
21
5.859288
31
0.0
0
LINE
8
0
10
5.183803
20
5.859288
30
0.0
11
6.121291
21
7.933330
31
0.0
0
LINE
8
0
10
-6.627641
20
8.454264
30
0.0
11
-6.608539
21
8.519779
31
0.0
0
LINE
8
0
10
-6.608539
20
8.519779
30
0.0
11
-6.597302
21
8.558377
31
0.0
0
LINE
8
0
10
-6.597302
20
8.558377
30
0.0
11
-6.624462
21
8.606342
31
0.0
0
LINE
8
0
10
-6.624462
20
8.606342
30
0.0
11
-6.640417
21
8.634600
31
0.0
0
LINE
8
0
10
-6.640417
20
8.634600
30
0.0
11
-6.706342
21
8.652171
31
0.0
0
LINE
8
0
10
-6.706342
20
8.652171
30
0.0
11
-6.745194
21
8.662523
31
0.0
0
LINE
8
0
10
-6.907640
20
8.044738
30
0.0
11
-6.847552
21
8.110263
31
0.0
0
LINE
8
0
10
-6.847552
20
8.110263
30
0.0
11
-6.812152
21
8.148866
31
0.0
0
LINE
8
0
10
-7.042846
20
7.968514
30
0.0
11
-6.957737
21
8.016479
31
0.0
0
LINE
8
0
10
-6.957737
20
8.016479
30
0.0
11
-6.907640
21
8.044738
31
0.0
0
LINE
8
0
10
-7.181244
20
7.940607
30
0.0
11
-7.094181
21
7.958168
31
0.0
0
LINE
8
0
10
-7.094181
20
7.958168
30
0.0
11
-7.042846
21
7.968514
31
0.0
0
LINE
8
0
10
-8.761679
20
7.908008
30
0.0
11
-8.685130
21
7.928522
31
0.0
0
LINE
8
0
10
-8.685130
20
7.928522
30
0.0
11
-8.640031
21
7.940608
31
0.0
0
LINE
8
0
10
-8.850729
20
7.818955
30
0.0
11
-8.794693
21
7.874993
31
0.0
0
LINE
8
0
10
-8.794693
20
7.874993
30
0.0
11
-8.761679
21
7.908008
31
0.0
0
LINE
8
0
10
-8.883324
20
7.697318
30
0.0
11
-8.862813
21
7.773860
31
0.0
0
LINE
8
0
10
-8.862813
20
7.773860
30
0.0
11
-8.850729
21
7.818955
31
0.0
0
LINE
8
0
10
-8.640043
20
5.642401
30
0.0
11
-8.716561
21
5.662915
31
0.0
0
LINE
8
0
10
-8.716561
20
5.662915
30
0.0
11
-8.761657
21
5.675000
31
0.0
0
LINE
8
0
10
-8.850718
20
5.764037
30
0.0
11
-8.794672
21
5.708009
31
0.0
0
LINE
8
0
10
-8.794672
20
5.708009
30
0.0
11
-8.761657
21
5.675000
31
0.0
0
LINE
8
0
10
-8.850718
20
5.764037
30
0.0
11
-8.871241
21
5.840590
31
0.0
0
LINE
8
0
10
-8.871241
20
5.840590
30
0.0
11
-8.883326
21
5.885690
31
0.0
0
LINE
8
0
10
-6.683208
20
5.470793
30
0.0
11
-6.757977
21
5.524781
31
0.0
0
LINE
8
0
10
-6.757977
20
5.524781
30
0.0
11
-6.802029
21
5.556588
31
0.0
0
LINE
8
0
10
-6.802029
20
5.556588
30
0.0
11
-6.897774
21
5.596118
31
0.0
0
LINE
8
0
10
-6.897774
20
5.596118
30
0.0
11
-6.954189
21
5.619407
31
0.0
0
LINE
8
0
10
-6.954189
20
5.619407
30
0.0
11
-7.045275
21
5.633876
31
0.0
0
LINE
8
0
10
-7.045275
20
5.633876
30
0.0
11
-7.098941
21
5.642401
31
0.0
0
LINE
8
0
10
-6.463480
20
5.206519
30
0.0
11
-6.501790
21
5.273372
31
0.0
0
LINE
8
0
10
-6.501790
20
5.273372
30
0.0
11
-6.524347
21
5.312759
31
0.0
0
LINE
8
0
10
-6.469616
20
5.087888
30
0.0
11
-6.465787
21
5.162539
31
0.0
0
LINE
8
0
10
-6.465787
20
5.162539
30
0.0
11
-6.463480
21
5.206519
31
0.0
0
LINE
8
0
10
-6.541409
20
4.988655
30
0.0
11
-6.496205
21
5.051099
31
0.0
0
LINE
8
0
10
-6.496205
20
5.051099
30
0.0
11
-6.469616
21
5.087888
31
0.0
0
LINE
8
0
10
-6.899208
20
4.733210
30
0.0
11
-6.819485
21
4.776979
31
0.0
0
LINE
8
0
10
-6.819485
20
4.776979
30
0.0
11
-6.772519
21
4.802765
31
0.0
0
LINE
8
0
10
-7.055734
20
4.695681
30
0.0
11
-6.957241
21
4.719297
31
0.0
0
LINE
8
0
10
-6.957241
20
4.719297
30
0.0
11
-6.899208
21
4.733210
31
0.0
0
LINE
8
0
10
-7.200179
20
4.700239
30
0.0
11
-7.109284
21
4.697371
31
0.0
0
LINE
8
0
10
-7.109284
20
4.697371
30
0.0
11
-7.055734
21
4.695681
31
0.0
0
LINE
8
0
10
-8.764259
20
4.995965
30
0.0
11
-8.689334
21
5.000756
31
0.0
0
LINE
8
0
10
-8.689334
20
5.000756
30
0.0
11
-8.645196
21
5.003579
31
0.0
0
LINE
8
0
10
-8.851425
20
4.925212
30
0.0
11
-8.796571
21
4.969735
31
0.0
0
LINE
8
0
10
-8.796571
20
4.969735
30
0.0
11
-8.764259
21
4.995965
31
0.0
0
LINE
8
0
10
-8.883320
20
4.810261
30
0.0
11
-8.863249
21
4.882596
31
0.0
0
LINE
8
0
10
-8.863249
20
4.882596
30
0.0
11
-8.851425
21
4.925212
31
0.0
0
LINE
8
0
10
-6.812152
20
8.148866
30
0.0
11
-6.696034
21
8.341044
31
0.0
0
LINE
8
0
10
-6.696034
20
8.341044
30
0.0
11
-6.627641
21
8.454264
31
0.0
0
LINE
8
0
10
-6.745194
20
8.662523
30
0.0
11
-9.750734
21
8.662523
31
0.0
0
LINE
8
0
10
-9.750734
20
8.662523
30
0.0
11
-11.521441
21
8.662523
31
0.0
0
LINE
8
0
10
-8.640031
20
7.940608
30
0.0
11
-7.722066
21
7.940607
31
0.0
0
LINE
8
0
10
-7.722066
20
7.940607
30
0.0
11
-7.181244
21
7.940607
31
0.0
0
LINE
8
0
10
-8.883324
20
6.807441
30
0.0
11
-8.883324
21
7.367412
31
0.0
0
LINE
8
0
10
-8.883324
20
7.367412
30
0.0
11
-8.883324
21
7.697318
31
0.0
0
LINE
8
0
10
-8.640043
20
5.642401
30
0.0
11
-7.670273
21
5.642401
31
0.0
0
LINE
8
0
10
-7.670273
20
5.642401
30
0.0
11
-7.098941
21
5.642401
31
0.0
0
LINE
8
0
10
-8.883326
20
5.885690
30
0.0
11
-8.883324
21
6.465719
31
0.0
0
LINE
8
0
10
-8.883324
20
6.465719
30
0.0
11
-8.883324
21
6.807441
31
0.0
0
LINE
8
0
10
-6.524347
20
5.312759
30
0.0
11
-6.624315
21
5.412205
31
0.0
0
LINE
8
0
10
-6.624315
20
5.412205
30
0.0
11
-6.683208
21
5.470793
31
0.0
0
LINE
8
0
10
-6.772519
20
4.802765
30
0.0
11
-6.627081
21
4.919739
31
0.0
0
LINE
8
0
10
-6.627081
20
4.919739
30
0.0
11
-6.541409
21
4.988655
31
0.0
0
LINE
8
0
10
-8.645196
20
5.003579
30
0.0
11
-7.735896
21
4.812697
31
0.0
0
LINE
8
0
10
-7.735896
20
4.812697
30
0.0
11
-7.200179
21
4.700239
31
0.0
0
LINE
8
0
10
-8.883326
20
3.617500
30
0.0
11
-8.883321
21
4.368067
31
0.0
0
LINE
8
0
10
-8.883321
20
4.368067
30
0.0
11
-8.883320
21
4.810261
31
0.0
0
LINE
8
0
10
-17.152155
20
-4.623811
30
0.0
11
-17.143419
21
-4.581604
31
0.0
0
LINE
8
0
10
-17.143419
20
-4.581604
30
0.0
11
-17.138183
21
-4.556738
31
0.0
0
LINE
8
0
10
-17.138183
20
-4.556738
30
0.0
11
-17.113532
21
-4.548197
31
0.0
0
LINE
8
0
10
-17.113532
20
-4.548197
30
0.0
11
-17.099134
21
-4.543165
31
0.0
0
LINE
8
0
10
-17.099134
20
-4.543165
30
0.0
11
-17.065835
21
-4.570574
31
0.0
0
LINE
8
0
10
-17.065835
20
-4.570574
30
0.0
11
-17.046211
21
-4.586721
31
0.0
0
LINE
8
0
10
-13.037220
20
-4.045850
30
0.0
11
-13.004349
21
-4.000795
31
0.0
0
LINE
8
0
10
-13.004349
20
-4.000795
30
0.0
11
-12.984989
21
-3.974252
31
0.0
0
LINE
8
0
10
-13.048101
20
-4.134583
30
0.0
11
-13.041255
21
-4.078746
31
0.0
0
LINE
8
0
10
-13.041255
20
-4.078746
30
0.0
11
-13.037220
21
-4.045850
31
0.0
0
LINE
8
0
10
-13.014730
20
-4.216698
30
0.0
11
-13.035734
21
-4.165026
31
0.0
0
LINE
8
0
10
-13.035734
20
-4.165026
30
0.0
11
-13.048101
21
-4.134583
31
0.0
0
LINE
8
0
10
-17.139602
20
-1.126075
30
0.0
11
-17.086235
21
-1.111765
31
0.0
0
LINE
8
0
10
-17.086235
20
-1.111765
30
0.0
11
-17.054791
21
-1.103334
31
0.0
0
LINE
8
0
10
-17.201712
20
-1.188167
30
0.0
11
-17.162624
21
-1.149094
31
0.0
0
LINE
8
0
10
-17.162624
20
-1.149094
30
0.0
11
-17.139602
21
-1.126075
31
0.0
0
LINE
8
0
10
-17.224436
20
-1.272983
30
0.0
11
-17.210138
21
-1.219611
31
0.0
0
LINE
8
0
10
-17.210138
20
-1.219611
30
0.0
11
-17.201712
21
-1.188167
31
0.0
0
LINE
8
0
10
-17.201682
20
-3.563576
30
0.0
11
-17.216010
21
-3.510203
31
0.0
0
LINE
8
0
10
-17.216010
20
-3.510203
30
0.0
11
-17.224441
21
-3.478759
31
0.0
0
LINE
8
0
10
-17.201682
20
-3.563576
30
0.0
11
-17.162548
21
-3.602649
31
0.0
0
LINE
8
0
10
-17.162548
20
-3.602649
30
0.0
11
-17.139522
21
-3.625669
31
0.0
0
LINE
8
0
10
-17.054796
20
-3.648392
30
0.0
11
-17.108086
21
-3.634093
31
0.0
0
LINE
8
0
10
-17.108086
20
-3.634093
30
0.0
11
-17.139522
21
-3.625669
31
0.0
0
LINE
8
0
10
-17.152136
20
-7.178746
30
0.0
11
-17.152153
21
-5.571007
31
0.0
0
LINE
8
0
10
-17.152153
20
-5.571007
30
0.0
11
-17.152155
21
-4.623811
31
0.0
0
LINE
8
0
10
-17.046211
20
-4.586721
30
0.0
11
-15.468876
21
-6.561594
31
0.0
0
LINE
8
0
10
-15.468876
20
-6.561594
30
0.0
11
-14.539575
21
-7.725086
31
0.0
0
LINE
8
0
10
-12.984989
20
-3.974252
30
0.0
11
-12.899943
21
-3.905243
31
0.0
0
LINE
8
0
10
-12.899943
20
-3.905243
30
0.0
11
-12.849835
21
-3.864586
31
0.0
0
LINE
8
0
10
-12.833035
20
-4.458163
30
0.0
11
-12.947373
21
-4.306217
31
0.0
0
LINE
8
0
10
-12.947373
20
-4.306217
30
0.0
11
-13.014730
21
-4.216698
31
0.0
0
LINE
8
0
10
-17.054791
20
-1.103334
30
0.0
11
-16.904474
21
-1.103334
31
0.0
0
LINE
8
0
10
-16.904474
20
-1.103334
30
0.0
11
-16.815912
21
-1.103334
31
0.0
0
LINE
8
0
10
-17.224441
20
-3.478759
30
0.0
11
-17.224436
21
-2.090735
31
0.0
0
LINE
8
0
10
-17.224436
20
-2.090735
30
0.0
11
-17.224436
21
-1.272983
31
0.0
0
LINE
8
0
10
-16.902715
20
-3.648392
30
0.0
11
-16.998399
21
-3.648392
31
0.0
0
LINE
8
0
10
-16.998399
20
-3.648392
30
0.0
11
-17.054796
21
-3.648392
31
0.0
0
LINE
8
0
10
-22.563335
20
2.737770
30
0.0
11
-22.456515
21
2.716183
31
0.0
0
LINE
8
0
10
-22.456515
20
2.716183
30
0.0
11
-22.393582
21
2.703465
31
0.0
0
LINE
8
0
10
-22.393582
20
2.703465
30
0.0
11
-22.289919
21
2.644102
31
0.0
0
LINE
8
0
10
-22.289919
20
2.644102
30
0.0
11
-22.228866
21
2.609128
31
0.0
0
LINE
8
0
10
-22.113463
20
2.480046
30
0.0
11
-22.186070
21
2.561273
31
0.0
0
LINE
8
0
10
-22.186070
20
2.561273
30
0.0
11
-22.228866
21
2.609128
31
0.0
0
LINE
8
0
10
-21.428808
20
0.786070
30
0.0
11
-21.347449
21
0.810568
31
0.0
0
LINE
8
0
10
-21.347449
20
0.810568
30
0.0
11
-21.299520
21
0.825001
31
0.0
0
LINE
8
0
10
-21.299520
20
0.825001
30
0.0
11
-21.265381
21
0.886500
31
0.0
0
LINE
8
0
10
-21.265381
20
0.886500
30
0.0
11
-21.245268
21
0.922732
31
0.0
0
LINE
8
0
10
-21.245268
20
0.922732
30
0.0
11
-21.267511
21
1.004734
31
0.0
0
LINE
8
0
10
-21.267511
20
1.004734
30
0.0
11
-21.280609
21
1.053045
31
0.0
0
LINE
8
0
10
-20.787360
20
-8.769166
30
0.0
11
-20.864147
21
-8.746007
31
0.0
0
LINE
8
0
10
-20.864147
20
-8.746007
30
0.0
11
-20.909428
21
-8.732362
31
0.0
0
LINE
8
0
10
-20.752229
20
-8.854978
30
0.0
11
-20.774359
21
-8.800979
31
0.0
0
LINE
8
0
10
-20.774359
20
-8.800979
30
0.0
11
-20.787360
21
-8.769166
31
0.0
0
LINE
8
0
10
-20.813681
20
-8.966789
30
0.0
11
-20.775019
21
-8.896430
31
0.0
0
LINE
8
0
10
-20.775019
20
-8.896430
30
0.0
11
-20.752229
21
-8.854978
31
0.0
0
LINE
8
0
10
-23.484595
20
-11.521318
30
0.0
11
-23.373500
21
-11.506604
31
0.0
0
LINE
8
0
10
-23.373500
20
-11.506604
30
0.0
11
-23.308025
21
-11.497936
31
0.0
0
LINE
8
0
10
-23.308025
20
-11.497936
30
0.0
11
-23.192345
21
-11.450140
31
0.0
0
LINE
8
0
10
-23.192345
20
-11.450140
30
0.0
11
-23.124234
21
-11.421982
31
0.0
0
LINE
8
0
10
-23.124234
20
-11.421982
30
0.0
11
-23.035195
21
-11.353897
31
0.0
0
LINE
8
0
10
-23.035195
20
-11.353897
30
0.0
11
-22.982724
21
-11.313785
31
0.0
0
LINE
8
0
10
-23.456951
20
2.736015
30
0.0
11
-22.894626
21
2.737119
31
0.0
0
LINE
8
0
10
-22.894626
20
2.737119
30
0.0
11
-22.563335
21
2.737770
31
0.0
0
LINE
8
0
10
-21.280609
20
1.053045
30
0.0
11
-21.804693
21
1.951012
31
0.0
0
LINE
8
0
10
-21.804693
20
1.951012
30
0.0
11
-22.113463
21
2.480046
31
0.0
0
LINE
8
0
10
-23.346698
20
0.730495
30
0.0
11
-22.139833
21
0.765467
31
0.0
0
LINE
8
0
10
-22.139833
20
0.765467
30
0.0
11
-21.428808
21
0.786070
31
0.0
0
LINE
8
0
10
-20.909428
20
-8.732362
30
0.0
11
-21.413330
21
-8.707440
31
0.0
0
LINE
8
0
10
-21.413330
20
-8.707440
30
0.0
11
-21.710211
21
-8.692757
31
0.0
0
LINE
8
0
10
-22.982724
20
-11.313785
30
0.0
11
-21.617816
21
-9.836895
31
0.0
0
LINE
8
0
10
-21.617816
20
-9.836895
30
0.0
11
-20.813681
21
-8.966789
31
0.0
0
LINE
8
0
10
-24.383315
20
-11.484836
30
0.0
11
-23.817779
21
-11.507793
31
0.0
0
LINE
8
0
10
-23.817779
20
-11.507793
30
0.0
11
-23.484595
21
-11.521318
31
0.0
0
LINE
8
0
10
-0.897664
20
-1.748724
30
0.0
11
-0.875622
21
-1.813336
31
0.0
0
LINE
8
0
10
-0.875622
20
-1.813336
30
0.0
11
-0.862640
21
-1.851402
31
0.0
0
LINE
8
0
10
-0.872511
20
-1.646419
30
0.0
11
-0.888310
21
-1.710796
31
0.0
0
LINE
8
0
10
-0.888310
20
-1.710796
30
0.0
11
-0.897664
21
-1.748724
31
0.0
0
LINE
8
0
10
-0.793648
20
-1.571833
30
0.0
11
-0.843298
21
-1.618767
31
0.0
0
LINE
8
0
10
-0.843298
20
-1.618767
30
0.0
11
-0.872511
21
-1.646419
31
0.0
0
LINE
8
0
10
1.788233
20
-0.226019
30
0.0
11
1.719415
21
-0.242198
31
0.0
0
LINE
8
0
10
1.719415
20
-0.242198
30
0.0
11
1.678870
21
-0.251730
31
0.0
0
LINE
8
0
10
1.897064
20
-0.257217
30
0.0
11
1.828580
21
-0.237585
31
0.0
0
LINE
8
0
10
1.828580
20
-0.237585
30
0.0
11
1.788233
21
-0.226019
31
0.0
0
LINE
8
0
10
1.976233
20
-0.336918
30
0.0
11
1.926415
21
-0.286764
31
0.0
0
LINE
8
0
10
1.926415
20
-0.286764
30
0.0
11
1.897064
21
-0.257217
31
0.0
0
LINE
8
0
10
4.281353
20
-4.148005
30
0.0
11
4.327773
21
-4.107222
31
0.0
0
LINE
8
0
10
4.327773
20
-4.107222
30
0.0
11
4.355121
21
-4.083194
31
0.0
0
LINE
8
0
10
4.281353
20
-4.148005
30
0.0
11
4.229261
21
-4.146401
31
0.0
0
LINE
8
0
10
4.229261
20
-4.146401
30
0.0
11
4.198571
21
-4.145455
31
0.0
0
LINE
8
0
10
4.198571
20
-4.145455
30
0.0
11
4.154765
21
-4.101878
31
0.0
0
LINE
8
0
10
4.154765
20
-4.101878
30
0.0
11
4.128957
21
-4.076205
31
0.0
0
LINE
8
0
10
5.239147
20
-2.341475
30
0.0
11
5.217985
21
-2.417805
31
0.0
0
LINE
8
0
10
5.217985
20
-2.417805
30
0.0
11
5.205545
21
-2.462775
31
0.0
0
LINE
8
0
10
5.234679
20
-2.202788
30
0.0
11
5.237500
21
-2.290060
31
0.0
0
LINE
8
0
10
5.237500
20
-2.290060
30
0.0
11
5.239147
21
-2.341475
31
0.0
0
LINE
8
0
10
5.193478
20
-2.083887
30
0.0
11
5.219407
21
-2.158708
31
0.0
0
LINE
8
0
10
5.219407
20
-2.158708
30
0.0
11
5.234679
21
-2.202788
31
0.0
0
LINE
8
0
10
4.697339
20
-1.173008
30
0.0
11
4.714279
21
-1.237811
31
0.0
0
LINE
8
0
10
4.714279
20
-1.237811
30
0.0
11
4.724274
21
-1.275990
31
0.0
0
LINE
8
0
10
4.731795
20
-1.077861
30
0.0
11
4.710113
21
-1.137734
31
0.0
0
LINE
8
0
10
4.710113
20
-1.137734
30
0.0
11
4.697339
21
-1.173008
31
0.0
0
LINE
8
0
10
4.818450
20
-1.016038
30
0.0
11
4.763924
21
-1.054941
31
0.0
0
LINE
8
0
10
4.763924
20
-1.054941
30
0.0
11
4.731795
21
-1.077861
31
0.0
0
LINE
8
0
10
7.753379
20
-0.170848
30
0.0
11
7.701324
21
-0.119059
31
0.0
0
LINE
8
0
10
7.701324
20
-0.119059
30
0.0
11
7.670656
21
-0.088547
31
0.0
0
LINE
8
0
10
7.670656
20
-0.088547
30
0.0
11
7.598455
21
-0.063072
31
0.0
0
LINE
8
0
10
7.598455
20
-0.063072
30
0.0
11
7.555915
21
-0.048064
31
0.0
0
LINE
8
0
10
7.439869
20
-0.060253
30
0.0
11
7.512895
21
-0.052583
31
0.0
0
LINE
8
0
10
7.512895
20
-0.052583
30
0.0
11
7.555915
21
-0.048064
31
0.0
0
LINE
8
0
10
10.053854
20
-3.941941
30
0.0
11
10.013397
21
-3.901243
31
0.0
0
LINE
8
0
10
10.013397
20
-3.901243
30
0.0
11
9.989560
21
-3.877266
31
0.0
0
LINE
8
0
10
10.118320
20
-3.934277
30
0.0
11
10.077753
21
-3.939100
31
0.0
0
LINE
8
0
10
10.077753
20
-3.939100
30
0.0
11
10.053854
21
-3.941941
31
0.0
0
LINE
8
0
10
10.165682
20
-3.856315
30
0.0
11
10.135876
21
-3.905374
31
0.0
0
LINE
8
0
10
10.135876
20
-3.905374
30
0.0
11
10.118320
21
-3.934277
31
0.0
0
LINE
8
0
10
11.521425
20
-0.240572
30
0.0
11
11.461804
21
-0.217147
31
0.0
0
LINE
8
0
10
11.461804
20
-0.217147
30
0.0
11
11.426685
21
-0.203346
31
0.0
0
LINE
8
0
10
11.426685
20
-0.203346
30
0.0
11
11.372043
21
-0.220811
31
0.0
0
LINE
8
0
10
11.372043
20
-0.220811
30
0.0
11
11.339885
21
-0.231101
31
0.0
0
LINE
8
0
10
11.339885
20
-0.231101
30
0.0
11
11.305043
21
-0.284781
31
0.0
0
LINE
8
0
10
11.305043
20
-0.284781
30
0.0
11
11.284481
21
-0.316407
31
0.0
0
LINE
8
0
10
11.985990
20
-0.714101
30
0.0
11
11.985188
21
-0.759326
31
0.0
0
LINE
8
0
10
11.984076
20
-0.836091
30
0.0
11
11.984571
21
-0.792573
31
0.0
0
LINE
8
0
10
11.984571
20
-0.792573
30
0.0
11
11.985188
21
-0.759326
31
0.0
0
LINE
8
0
10
11.985990
20
-0.714101
30
0.0
11
11.958335
21
-0.636082
31
0.0
0
LINE
8
0
10
11.958335
20
-0.636082
30
0.0
11
11.941894
21
-0.590118
31
0.0
0
LINE
8
0
10
11.862682
20
-0.497350
30
0.0
11
11.912521
21
-0.555726
31
0.0
0
LINE
8
0
10
11.912521
20
-0.555726
30
0.0
11
11.941894
21
-0.590118
31
0.0
0
LINE
8
0
10
10.138299
20
-7.576154
30
0.0
11
10.210316
21
-7.558519
31
0.0
0
LINE
8
0
10
10.210316
20
-7.558519
30
0.0
11
10.252744
21
-7.548129
31
0.0
0
LINE
8
0
10
10.252744
20
-7.548129
30
0.0
11
10.313998
21
-7.499920
31
0.0
0
LINE
8
0
10
10.313998
20
-7.499920
30
0.0
11
10.350086
21
-7.471518
31
0.0
0
LINE
8
0
10
10.350086
20
-7.471518
30
0.0
11
10.384167
21
-7.405674
31
0.0
0
LINE
8
0
10
10.384167
20
-7.405674
30
0.0
11
10.404245
21
-7.366882
31
0.0
0
LINE
8
0
10
7.724992
20
-7.548720
30
0.0
11
7.798386
21
-7.565983
31
0.0
0
LINE
8
0
10
7.798386
20
-7.565983
30
0.0
11
7.841615
21
-7.576154
31
0.0
0
LINE
8
0
10
7.621943
20
-7.473814
30
0.0
11
7.686732
21
-7.520950
31
0.0
0
LINE
8
0
10
7.686732
20
-7.520950
30
0.0
11
7.724992
21
-7.548720
31
0.0
0
LINE
8
0
10
7.559521
20
-7.371474
30
0.0
11
7.598846
21
-7.435873
31
0.0
0
LINE
8
0
10
7.598846
20
-7.435873
30
0.0
11
7.621943
21
-7.473814
31
0.0
0
LINE
8
0
10
6.829821
20
-5.254565
30
0.0
11
6.867225
21
-5.331660
31
0.0
0
LINE
8
0
10
6.867225
20
-5.331660
30
0.0
11
6.889263
21
-5.377080
31
0.0
0
LINE
8
0
10
6.889263
20
-5.377080
30
0.0
11
6.927906
21
-5.468016
31
0.0
0
LINE
8
0
10
6.927906
20
-5.468016
30
0.0
11
6.950672
21
-5.521591
31
0.0
0
LINE
8
0
10
6.950672
20
-5.521591
30
0.0
11
6.980200
21
-5.602032
31
0.0
0
LINE
8
0
10
6.980200
20
-5.602032
30
0.0
11
6.997596
21
-5.649423
31
0.0
0
LINE
8
0
10
5.861956
20
-3.479689
30
0.0
11
5.900838
21
-3.522821
31
0.0
0
LINE
8
0
10
5.900838
20
-3.522821
30
0.0
11
5.923746
21
-3.548232
31
0.0
0
LINE
8
0
10
5.794165
20
-3.482610
30
0.0
11
5.836812
21
-3.480772
31
0.0
0
LINE
8
0
10
5.836812
20
-3.480772
30
0.0
11
5.861956
21
-3.479689
31
0.0
0
LINE
8
0
10
5.738449
20
-3.556183
30
0.0
11
5.773513
21
-3.509886
31
0.0
0
LINE
8
0
10
5.773513
20
-3.509886
30
0.0
11
5.794165
21
-3.482610
31
0.0
0
LINE
8
0
10
3.811394
20
-7.576154
30
0.0
11
3.886299
21
-7.559443
31
0.0
0
LINE
8
0
10
3.886299
20
-7.559443
30
0.0
11
3.930407
21
-7.549597
31
0.0
0
LINE
8
0
10
3.930407
20
-7.549597
30
0.0
11
3.999448
21
-7.503970
31
0.0
0
LINE
8
0
10
3.999448
20
-7.503970
30
0.0
11
4.040114
21
-7.477089
31
0.0
0
LINE
8
0
10
4.040114
20
-7.477089
30
0.0
11
4.084736
21
-7.414761
31
0.0
0
LINE
8
0
10
4.084736
20
-7.414761
30
0.0
11
4.111059
21
-7.378041
31
0.0
0
LINE
8
0
10
1.944111
20
-7.370816
30
0.0
11
1.982524
21
-7.435427
31
0.0
0
LINE
8
0
10
1.982524
20
-7.435427
30
0.0
11
2.005211
21
-7.473493
31
0.0
0
LINE
8
0
10
2.005211
20
-7.473493
30
0.0
11
2.069929
21
-7.520788
31
0.0
0
LINE
8
0
10
2.069929
20
-7.520788
30
0.0
11
2.107962
21
-7.548652
31
0.0
0
LINE
8
0
10
2.107962
20
-7.548652
30
0.0
11
2.181127
21
-7.565958
31
0.0
0
LINE
8
0
10
2.181127
20
-7.565958
30
0.0
11
2.224251
21
-7.576154
31
0.0
0
LINE
8
0
10
-0.674411
20
-2.128760
30
0.0
11
-0.744195
21
-2.025934
31
0.0
0
LINE
8
0
10
-0.862640
20
-1.851402
30
0.0
11
-0.795496
21
-1.950345
31
0.0
0
LINE
8
0
10
-0.795496
20
-1.950345
30
0.0
11
-0.744195
21
-2.025934
31
0.0
0
LINE
8
0
10
1.678870
20
-0.251730
30
0.0
11
0.762234
21
-0.741134
31
0.0
0
LINE
8
0
10
-0.793648
20
-1.571833
30
0.0
11
-0.441371
21
-1.383747
31
0.0
0
LINE
8
0
10
-0.441371
20
-1.383747
30
0.0
11
0.762234
21
-0.741134
31
0.0
0
LINE
8
0
10
1.976233
20
-0.336918
30
0.0
11
3.330874
21
-2.689932
31
0.0
0
LINE
8
0
10
3.330874
20
-2.689932
30
0.0
11
4.128957
21
-4.076205
31
0.0
0
LINE
8
0
10
4.529054
20
-3.820103
30
0.0
11
4.419602
21
-3.985658
31
0.0
0
LINE
8
0
10
4.419602
20
-3.985658
30
0.0
11
4.355121
21
-4.083194
31
0.0
0
LINE
8
0
10
5.205545
20
-2.462775
30
0.0
11
4.779858
21
-3.316898
31
0.0
0
LINE
8
0
10
4.779858
20
-3.316898
30
0.0
11
4.529054
21
-3.820103
31
0.0
0
LINE
8
0
10
4.724274
20
-1.275990
30
0.0
11
5.019538
21
-1.784374
31
0.0
0
LINE
8
0
10
5.019538
20
-1.784374
30
0.0
11
5.193478
21
-2.083887
31
0.0
0
LINE
8
0
10
4.818450
20
-1.016038
30
0.0
11
6.468028
21
-0.414593
31
0.0
0
LINE
8
0
10
6.468028
20
-0.414593
30
0.0
11
7.439869
21
-0.060253
31
0.0
0
LINE
8
0
10
7.753379
20
-0.170848
30
0.0
11
9.160537
21
-2.503179
31
0.0
0
LINE
8
0
10
9.160537
20
-2.503179
30
0.0
11
9.989560
21
-3.877266
31
0.0
0
LINE
8
0
10
11.284481
20
-0.316407
30
0.0
11
10.580461
21
-2.543958
31
0.0
0
LINE
8
0
10
10.580461
20
-2.543958
30
0.0
11
10.165682
21
-3.856315
31
0.0
0
LINE
8
0
10
11.862682
20
-0.497350
30
0.0
11
11.647940
21
-0.335768
31
0.0
0
LINE
8
0
10
11.647940
20
-0.335768
30
0.0
11
11.521425
21
-0.240572
31
0.0
0
LINE
8
0
10
10.404245
20
-7.366882
30
0.0
11
11.398376
21
-3.257263
31
0.0
0
LINE
8
0
10
11.398376
20
-3.257263
30
0.0
11
11.984076
21
-0.836091
31
0.0
0
LINE
8
0
10
7.841615
20
-7.576154
30
0.0
11
9.286847
21
-7.576154
31
0.0
0
LINE
8
0
10
9.286847
20
-7.576154
30
0.0
11
10.138299
21
-7.576154
31
0.0
0
LINE
8
0
10
6.997596
20
-5.649423
30
0.0
11
7.351200
21
-6.733055
31
0.0
0
LINE
8
0
10
7.351200
20
-6.733055
30
0.0
11
7.559521
21
-7.371474
31
0.0
0
LINE
8
0
10
5.923746
20
-3.548232
30
0.0
11
6.493910
21
-4.621973
31
0.0
0
LINE
8
0
10
6.493910
20
-4.621973
30
0.0
11
6.829821
21
-5.254565
31
0.0
0
LINE
8
0
10
4.111059
20
-7.378041
30
0.0
11
5.135127
21
-4.973067
31
0.0
0
LINE
8
0
10
5.135127
20
-4.973067
30
0.0
11
5.738449
21
-3.556183
31
0.0
0
LINE
8
0
10
2.224251
20
-7.576154
30
0.0
11
3.222993
21
-7.576154
31
0.0
0
LINE
8
0
10
3.222993
20
-7.576154
30
0.0
11
3.811394
21
-7.576154
31
0.0
0
LINE
8
0
10
1.658306
20
-6.464765
30
0.0
11
1.838142
21
-7.034914
31
0.0
0
LINE
8
0
10
1.838142
20
-7.034914
30
0.0
11
1.944111
21
-7.370816
31
0.0
0
LINE
8
0
10
13.818802
20
-3.768326
30
0.0
11
13.835527
21
-3.700431
31
0.0
0
LINE
8
0
10
13.835527
20
-3.700431
30
0.0
11
13.845386
21
-3.660431
31
0.0
0
LINE
8
0
10
13.845386
20
-3.660431
30
0.0
11
13.891081
21
-3.639387
31
0.0
0
LINE
8
0
10
13.891081
20
-3.639387
30
0.0
11
13.918012
21
-3.626988
31
0.0
0
LINE
8
0
10
13.918012
20
-3.626988
30
0.0
11
13.980481
21
-3.658454
31
0.0
0
LINE
8
0
10
13.980481
20
-3.658454
30
0.0
11
14.017278
21
-3.676993
31
0.0
0
LINE
8
0
10
13.564668
20
-6.998175
30
0.0
11
13.644624
21
-6.956914
31
0.0
0
LINE
8
0
10
13.644624
20
-6.956914
30
0.0
11
13.691731
21
-6.932605
31
0.0
0
LINE
8
0
10
13.691731
20
-6.932605
30
0.0
11
13.750266
21
-6.858337
31
0.0
0
LINE
8
0
10
13.750266
20
-6.858337
30
0.0
11
13.784751
21
-6.814582
31
0.0
0
LINE
8
0
10
13.784751
20
-6.814582
30
0.0
11
13.806172
21
-6.727204
31
0.0
0
LINE
8
0
10
13.806172
20
-6.727204
30
0.0
11
13.818793
21
-6.675726
31
0.0
0
LINE
8
0
10
12.904367
20
-6.896106
30
0.0
11
12.925184
21
-6.973179
31
0.0
0
LINE
8
0
10
12.925184
20
-6.973179
30
0.0
11
12.937400
21
-7.018586
31
0.0
0
LINE
8
0
10
12.937400
20
-7.018586
30
0.0
11
12.995260
21
-7.064713
31
0.0
0
LINE
8
0
10
12.995260
20
-7.064713
30
0.0
11
13.029423
21
-7.091889
31
0.0
0
LINE
8
0
10
13.029423
20
-7.091889
30
0.0
11
13.109245
21
-7.094704
31
0.0
0
LINE
8
0
10
13.109245
20
-7.094704
30
0.0
11
13.156248
21
-7.096362
31
0.0
0
LINE
8
0
10
12.736165
20
-2.470726
30
0.0
11
12.800360
21
-2.543932
31
0.0
0
LINE
8
0
10
12.800360
20
-2.543932
30
0.0
11
12.838179
21
-2.587061
31
0.0
0
LINE
8
0
10
12.838179
20
-2.587061
30
0.0
11
12.884790
21
-2.684712
31
0.0
0
LINE
8
0
10
12.884790
20
-2.684712
30
0.0
11
12.912250
21
-2.742243
31
0.0
0
LINE
8
0
10
12.912250
20
-2.742243
30
0.0
11
12.928797
21
-2.838172
31
0.0
0
LINE
8
0
10
12.928797
20
-2.838172
30
0.0
11
12.938548
21
-2.894689
31
0.0
0
LINE
8
0
10
12.519534
20
-2.254263
30
0.0
11
12.567913
21
-2.320585
31
0.0
0
LINE
8
0
10
12.567913
20
-2.320585
30
0.0
11
12.596415
21
-2.359658
31
0.0
0
LINE
8
0
10
12.514106
20
-2.128963
30
0.0
11
12.517521
21
-2.207810
31
0.0
0
LINE
8
0
10
12.517521
20
-2.207810
30
0.0
11
12.519534
21
-2.254263
31
0.0
0
LINE
8
0
10
12.581592
20
-2.017339
30
0.0
11
12.539125
21
-2.087580
31
0.0
0
LINE
8
0
10
12.539125
20
-2.087580
30
0.0
11
12.514106
21
-2.128963
31
0.0
0
LINE
8
0
10
14.871874
20
0.103132
30
0.0
11
14.795614
21
0.061085
31
0.0
0
LINE
8
0
10
14.795614
20
0.061085
30
0.0
11
14.750662
21
0.036313
31
0.0
0
LINE
8
0
10
15.013440
20
0.105969
30
0.0
11
14.924343
21
0.104184
31
0.0
0
LINE
8
0
10
14.924343
20
0.104184
30
0.0
11
14.871874
21
0.103132
31
0.0
0
LINE
8
0
10
15.137310
20
0.044079
30
0.0
11
15.059362
21
0.083024
31
0.0
0
LINE
8
0
10
15.059362
20
0.083024
30
0.0
11
15.013440
21
0.105969
31
0.0
0
LINE
8
0
10
19.680837
20
-3.663032
30
0.0
11
19.664233
21
-3.730766
31
0.0
0
LINE
8
0
10
19.664233
20
-3.730766
30
0.0
11
19.654453
21
-3.770672
31
0.0
0
LINE
8
0
10
19.654453
20
-3.770672
30
0.0
11
19.609117
21
-3.791271
31
0.0
0
LINE
8
0
10
19.609117
20
-3.791271
30
0.0
11
19.582408
21
-3.803407
31
0.0
0
LINE
8
0
10
19.582408
20
-3.803407
30
0.0
11
19.520470
21
-3.771346
31
0.0
0
LINE
8
0
10
19.520470
20
-3.771346
30
0.0
11
19.483978
21
-3.752456
31
0.0
0
LINE
8
0
10
19.891600
20
-0.339502
30
0.0
11
19.825369
21
-0.410169
31
0.0
0
LINE
8
0
10
19.825369
20
-0.410169
30
0.0
11
19.786311
21
-0.451803
31
0.0
0
LINE
8
0
10
19.786311
20
-0.451803
30
0.0
11
19.737673
21
-0.547604
31
0.0
0
LINE
8
0
10
19.737673
20
-0.547604
30
0.0
11
19.709059
21
-0.604046
31
0.0
0
LINE
8
0
10
19.709059
20
-0.604046
30
0.0
11
19.691298
21
-0.699306
31
0.0
0
LINE
8
0
10
19.691298
20
-0.699306
30
0.0
11
19.680831
21
-0.755429
31
0.0
0
LINE
8
0
10
20.438338
20
0.061450
30
0.0
11
20.504654
21
0.088040
31
0.0
0
LINE
8
0
10
20.504654
20
0.088040
30
0.0
11
20.543722
21
0.103706
31
0.0
0
LINE
8
0
10
20.543722
20
0.103706
30
0.0
11
20.592297
21
0.079113
31
0.0
0
LINE
8
0
10
20.592297
20
0.079113
30
0.0
11
20.620902
21
0.064624
31
0.0
0
LINE
8
0
10
20.649100
20
-0.045330
30
0.0
11
20.644787
21
-0.028525
31
0.0
0
LINE
8
0
10
20.620902
20
0.064624
30
0.0
11
20.638639
21
-0.004567
31
0.0
0
LINE
8
0
10
20.638639
20
-0.004567
30
0.0
11
20.644787
21
-0.028525
31
0.0
0
LINE
8
0
10
20.673091
20
-4.451616
30
0.0
11
20.658004
21
-4.353328
31
0.0
0
LINE
8
0
10
20.658004
20
-4.353328
30
0.0
11
20.649111
21
-4.295422
31
0.0
0
LINE
8
0
10
20.738625
20
-4.616960
30
0.0
11
20.697391
21
-4.512914
31
0.0
0
LINE
8
0
10
20.697391
20
-4.512914
30
0.0
11
20.673091
21
-4.451616
31
0.0
0
LINE
8
0
10
20.828191
20
-4.747139
30
0.0
11
20.771827
21
-4.665222
31
0.0
0
LINE
8
0
10
20.771827
20
-4.665222
30
0.0
11
20.738625
21
-4.616960
31
0.0
0
LINE
8
0
10
20.973105
20
-5.282203
30
0.0
11
21.015271
21
-5.207127
31
0.0
0
LINE
8
0
10
21.015271
20
-5.207127
30
0.0
11
21.040109
21
-5.162896
31
0.0
0
LINE
8
0
10
21.040109
20
-5.162896
30
0.0
11
21.040555
21
-5.075837
31
0.0
0
LINE
8
0
10
21.040555
20
-5.075837
30
0.0
11
21.040920
21
-5.024547
31
0.0
0
LINE
8
0
10
21.040920
20
-5.024547
30
0.0
11
21.000107
21
-4.948834
31
0.0
0
LINE
8
0
10
21.000107
20
-4.948834
30
0.0
11
20.975967
21
-4.904227
31
0.0
0
LINE
8
0
10
18.731428
20
-7.542998
30
0.0
11
18.805410
21
-7.498306
31
0.0
0
LINE
8
0
10
18.805410
20
-7.498306
30
0.0
11
18.848996
21
-7.471975
31
0.0
0
LINE
8
0
10
18.592160
20
-7.549431
30
0.0
11
18.679797
21
-7.545383
31
0.0
0
LINE
8
0
10
18.679797
20
-7.545383
30
0.0
11
18.731428
21
-7.542998
31
0.0
0
LINE
8
0
10
18.468523
20
-7.489566
30
0.0
11
18.546324
21
-7.527237
31
0.0
0
LINE
8
0
10
18.546324
20
-7.527237
30
0.0
11
18.592160
21
-7.549431
31
0.0
0
LINE
8
0
10
13.818793
20
-6.675726
30
0.0
11
13.818800
21
-4.846191
31
0.0
0
LINE
8
0
10
13.818800
20
-4.846191
30
0.0
11
13.818802
21
-3.768326
31
0.0
0
LINE
8
0
10
14.017278
20
-3.676993
30
0.0
11
16.818310
21
-6.076124
31
0.0
0
LINE
8
0
10
16.818310
20
-6.076124
30
0.0
11
18.468523
21
-7.489566
31
0.0
0
LINE
8
0
10
13.156248
20
-7.096362
30
0.0
11
13.413256
21
-7.034576
31
0.0
0
LINE
8
0
10
13.413256
20
-7.034576
30
0.0
11
13.564668
21
-6.998175
31
0.0
0
LINE
8
0
10
12.938548
20
-2.894689
30
0.0
11
12.917040
21
-5.412654
31
0.0
0
LINE
8
0
10
12.917040
20
-5.412654
30
0.0
11
12.904367
21
-6.896106
31
0.0
0
LINE
8
0
10
12.596415
20
-2.359658
30
0.0
11
12.684355
21
-2.429550
31
0.0
0
LINE
8
0
10
12.684355
20
-2.429550
30
0.0
11
12.736165
21
-2.470726
31
0.0
0
LINE
8
0
10
14.750662
20
0.036313
30
0.0
11
13.976882
21
-0.696296
31
0.0
0
LINE
8
0
10
12.581592
20
-2.017339
30
0.0
11
13.172737
21
-1.457650
31
0.0
0
LINE
8
0
10
13.976882
20
-0.696296
30
0.0
11
13.962662
21
-0.709758
31
0.0
0
LINE
8
0
10
13.172737
20
-1.457650
30
0.0
11
13.962662
21
-0.709758
31
0.0
0
LINE
8
0
10
19.483978
20
-3.752456
30
0.0
11
16.748761
21
-1.363418
31
0.0
0
LINE
8
0
10
16.748761
20
-1.363418
30
0.0
11
15.137310
21
0.044079
31
0.0
0
LINE
8
0
10
19.680831
20
-0.755429
30
0.0
11
19.680833
21
-2.585091
31
0.0
0
LINE
8
0
10
19.680833
20
-2.585091
30
0.0
11
19.680837
21
-3.663032
31
0.0
0
LINE
8
0
10
20.438338
20
0.061450
30
0.0
11
20.094295
21
-0.190857
31
0.0
0
LINE
8
0
10
20.094295
20
-0.190857
30
0.0
11
19.891600
21
-0.339502
31
0.0
0
LINE
8
0
10
20.649111
20
-4.295422
30
0.0
11
20.649101
21
-1.620974
31
0.0
0
LINE
8
0
10
20.649101
20
-1.620974
30
0.0
11
20.649100
21
-0.045330
31
0.0
0
LINE
8
0
10
20.828191
20
-4.747139
30
0.0
11
20.882977
21
-4.805377
31
0.0
0
LINE
8
0
10
20.975967
20
-4.904227
30
0.0
11
20.924066
21
-4.849054
31
0.0
0
LINE
8
0
10
20.924066
20
-4.849054
30
0.0
11
20.882977
21
-4.805377
31
0.0
0
LINE
8
0
10
18.848996
20
-7.471975
30
0.0
11
20.185632
21
-6.094021
31
0.0
0
LINE
8
0
10
20.185632
20
-6.094021
30
0.0
11
20.973105
21
-5.282203
31
0.0
0
LINE
8
0
10
30.060360
20
1.764103
30
0.0
11
30.011496
21
1.794071
31
0.0
0
LINE
8
0
10
30.011496
20
1.794071
30
0.0
11
29.982643
21
1.811727
31
0.0
0
LINE
8
0
10
30.130148
20
1.690058
30
0.0
11
30.086193
21
1.736652
31
0.0
0
LINE
8
0
10
30.086193
20
1.736652
30
0.0
11
30.060360
21
1.764103
31
0.0
0
LINE
8
0
10
30.172915
20
1.609428
30
0.0
11
30.146005
21
1.660166
31
0.0
0
LINE
8
0
10
30.146005
20
1.660166
30
0.0
11
30.130148
21
1.690058
31
0.0
0
LINE
8
0
10
30.313030
20
0.701656
30
0.0
11
30.357385
21
0.713246
31
0.0
0
LINE
8
0
10
30.357385
20
0.713246
30
0.0
11
30.383520
21
0.720074
31
0.0
0
LINE
8
0
10
30.383520
20
0.720074
30
0.0
11
30.408057
21
0.753230
31
0.0
0
LINE
8
0
10
30.408057
20
0.753230
30
0.0
11
30.422507
21
0.772763
31
0.0
0
LINE
8
0
10
30.422507
20
0.772763
30
0.0
11
30.420604
21
0.818593
31
0.0
0
LINE
8
0
10
30.420604
20
0.818593
30
0.0
11
30.419484
21
0.845593
31
0.0
0
LINE
8
0
10
29.869765
20
1.855975
30
0.0
11
29.940793
21
1.828131
31
0.0
0
LINE
8
0
10
29.940793
20
1.828131
30
0.0
11
29.982643
21
1.811727
31
0.0
0
LINE
8
0
10
30.172915
20
1.609428
30
0.0
11
30.328075
21
1.128771
31
0.0
0
LINE
8
0
10
30.328075
20
1.128771
30
0.0
11
30.419484
21
0.845593
31
0.0
0
LINE
8
0
10
29.821164
20
0.709033
30
0.0
11
30.130677
21
0.704391
31
0.0
0
LINE
8
0
10
30.130677
20
0.704391
30
0.0
11
30.313030
21
0.701656
31
0.0
0
LINE
8
0
10
20.026903
20
-11.235691
30
0.0
11
20.067651
21
-11.292058
31
0.0
0
LINE
8
0
10
20.067651
20
-11.292058
30
0.0
11
20.091652
21
-11.325267
31
0.0
0
LINE
8
0
10
20.091652
20
-11.325267
30
0.0
11
20.154351
21
-11.366540
31
0.0
0
LINE
8
0
10
20.154351
20
-11.366540
30
0.0
11
20.191290
21
-11.390855
31
0.0
0
LINE
8
0
10
20.191290
20
-11.390855
30
0.0
11
20.259149
21
-11.405940
31
0.0
0
LINE
8
0
10
20.259149
20
-11.405940
30
0.0
11
20.299132
21
-11.414827
31
0.0
0
LINE
8
0
10
19.778410
20
-10.593155
30
0.0
11
19.786943
21
-10.654260
31
0.0
0
LINE
8
0
10
19.786943
20
-10.654260
30
0.0
11
19.791967
21
-10.690260
31
0.0
0
LINE
8
0
10
19.818539
20
-10.507073
30
0.0
11
19.793287
21
-10.561242
31
0.0
0
LINE
8
0
10
19.793287
20
-10.561242
30
0.0
11
19.778410
21
-10.593155
31
0.0
0
LINE
8
0
10
19.901610
20
-10.455025
30
0.0
11
19.849336
21
-10.487777
31
0.0
0
LINE
8
0
10
19.849336
20
-10.487777
30
0.0
11
19.818539
21
-10.507073
31
0.0
0
LINE
8
0
10
19.791967
20
-10.690260
30
0.0
11
19.939800
21
-11.033483
31
0.0
0
LINE
8
0
10
19.939800
20
-11.033483
30
0.0
11
20.026903
21
-11.235691
31
0.0
0
LINE
8
0
10
20.299132
20
-11.414827
30
0.0
11
20.633993
21
-11.414827
31
0.0
0
LINE
8
0
10
20.633993
20
-11.414827
30
0.0
11
20.831270
21
-11.414828
31
0.0
0
LINE
8
0
10
19.901610
20
-10.455025
30
0.0
11
20.160789
21
-10.377208
31
0.0
0
LINE
8
0
10
20.160789
20
-10.377208
30
0.0
11
20.313482
21
-10.331362
31
0.0
0
ENDSEC
0
EOF
